Inter-Thin.ufo
<glyph name="hyphen" format="2">
  <advance width="1236.0"/>
  <unicode hex="002D"/>
  <guideline x="1102.0" y="878.0" angle="0.0"/>
  <outline>
    <contour>
      <point x="1000.0" y="910.0" type="line"/>
      <point x="236.0" y="910.0" type="line"/>
      <point x="236.0" y="846.0" type="line"/>
      <point x="1000.0" y="846.0" type="line"/>
    </contour>
  </outline>
</glyph>
<glyph name="one" format="2">
  <advance width="1148.0"/>
  <unicode hex="0031"/>
  <outline>
    <contour>
      <point x="716.0" y="2048.0" type="line"/>
      <point x="628.0" y="2048.0" type="line"/>
      <point x="200.0" y="1764.0" type="line"/>
      <point x="200.0" y="1688.0" type="line"/>
      <point x="640.0" y="1980.0" type="line"/>
      <point x="652.0" y="1980.0" type="line"/>
      <point x="652.0" y="0.0" type="line"/>
      <point x="716.0" y="0.0" type="line"/>
    </contour>
  </outline>
</glyph>
<glyph name="d" format="2">
  <advance width="1684.0"/>
  <unicode hex="0064"/>
  <outline>
    <contour>
      <point x="772.0" y="-32.0" type="curve" smooth="yes"/>
      <point x="1018.0" y="-32.0"/>
      <point x="1208.0" y="130.0"/>
      <point x="1292.0" y="384.0" type="curve"/>
      <point x="1300.0" y="384.0" type="line"/>
      <point x="1300.0" y="0.0" type="line"/>
      <point x="1364.0" y="0.0" type="line"/>
      <point x="1364.0" y="2048.0" type="line"/>
      <point x="1300.0" y="2048.0" type="line"/>
      <point x="1300.0" y="1144.0" type="line"/>
      <point x="1292.0" y="1144.0" type="line"/>
      <point x="1212.0" y="1400.0"/>
      <point x="1016.0" y="1560.0"/>
      <point x="772.0" y="1560.0" type="curve" smooth="yes"/>
      <point x="412.0" y="1560.0"/>
      <point x="180.0" y="1216.0"/>
      <point x="180.0" y="764.0" type="curve" smooth="yes"/>
      <point x="180.0" y="310.0"/>
      <point x="408.0" y="-32.0"/>
    </contour>
    <contour>
      <point x="772.0" y="32.0" type="curve" smooth="yes"/>
      <point x="446.0" y="32.0"/>
      <point x="244.0" y="348.0"/>
      <point x="244.0" y="764.0" type="curve" smooth="yes"/>
      <point x="244.0" y="1180.0"/>
      <point x="448.0" y="1496.0"/>
      <point x="772.0" y="1496.0" type="curve" smooth="yes"/>
      <point x="1096.0" y="1496.0"/>
      <point x="1300.0" y="1180.0"/>
      <point x="1300.0" y="764.0" type="curve" smooth="yes"/>
      <point x="1300.0" y="348.0"/>
      <point x="1098.0" y="32.0"/>
    </contour>
  </outline>
</glyph>
<glyph name="r" format="2">
  <advance width="916.0"/>
  <unicode hex="0072"/>
  <outline>
    <contour>
      <point x="272.0" y="0.0" type="line"/>
      <point x="336.0" y="0.0" type="line"/>
      <point x="336.0" y="1032.0" type="line" smooth="yes"/>
      <point x="336.0" y="1300.0"/>
      <point x="532.0" y="1492.0"/>
      <point x="804.0" y="1492.0" type="curve" smooth="yes"/>
      <point x="820.0" y="1492.0"/>
      <point x="820.0" y="1492.0"/>
      <point x="836.0" y="1492.0" type="curve"/>
      <point x="836.0" y="1556.0" type="line"/>
      <point x="820.0" y="1556.0"/>
      <point x="820.0" y="1556.0"/>
      <point x="804.0" y="1556.0" type="curve" smooth="yes"/>
      <point x="592.0" y="1556.0"/>
      <point x="416.0" y="1452.0"/>
      <point x="344.0" y="1292.0" type="curve"/>
      <point x="336.0" y="1292.0" type="line"/>
      <point x="336.0" y="1536.0" type="line"/>
      <point x="272.0" y="1536.0" type="line"/>
    </contour>
  </outline>
</glyph>
<glyph name="x" format="2">
  <advance width="1408.0"/>
  <unicode hex="0078"/>
  <outline>
    <contour>
      <point x="252.0" y="1536.0" type="line"/>
      <point x="176.0" y="1536.0" type="line"/>
      <point x="666.0" y="768.0" type="line"/>
      <point x="176.0" y="0.0" type="line"/>
      <point x="252.0" y="0.0" type="line"/>
      <point x="704.0" y="710.0" type="line"/>
      <point x="1156.0" y="0.0" type="line"/>
      <point x="1232.0" y="0.0" type="line"/>
      <point x="742.0" y="768.0" type="line"/>
      <point x="1232.0" y="1536.0" type="line"/>
      <point x="1156.0" y="1536.0" type="line"/>
      <point x="704.0" y="826.0" type="line"/>
    </contour>
  </outline>
</glyph>
<glyph name="bar" format="2">
  <advance width="768.0"/>
  <unicode hex="007C"/>
  <outline>
    <contour>
      <point x="416.0" y="2708.0" type="line"/>
      <point x="352.0" y="2708.0" type="line"/>
      <point x="352.0" y="-660.0" type="line"/>
      <point x="416.0" y="-660.0" type="line"/>
    </contour>
  </outline>
</glyph>
<glyph name="dieresis" format="2">
  <advance width="1856.0"/>
  <unicode hex="00A8"/>
  <guideline x="752.0" y="1880.0" angle="0.0"/>
  <outline>
    <contour>
      <point x="736.0" y="1816.0" type="curve" smooth="yes"/>
      <point x="771.0" y="1816.0"/>
      <point x="800.0" y="1845.0"/>
      <point x="800.0" y="1880.0" type="curve" smooth="yes"/>
      <point x="800.0" y="1915.0"/>
      <point x="771.0" y="1944.0"/>
      <point x="736.0" y="1944.0" type="curve" smooth="yes"/>
      <point x="701.0" y="1944.0"/>
      <point x="672.0" y="1915.0"/>
      <point x="672.0" y="1880.0" type="curve" smooth="yes"/>
      <point x="672.0" y="1845.0"/>
      <point x="701.0" y="1816.0"/>
    </contour>
    <contour>
      <point x="1120.0" y="1816.0" type="curve" smooth="yes"/>
      <point x="1155.0" y="1816.0"/>
      <point x="1184.0" y="1845.0"/>
      <point x="1184.0" y="1880.0" type="curve" smooth="yes"/>
      <point x="1184.0" y="1915.0"/>
      <point x="1155.0" y="1944.0"/>
      <point x="1120.0" y="1944.0" type="curve" smooth="yes"/>
      <point x="1085.0" y="1944.0"/>
      <point x="1056.0" y="1915.0"/>
      <point x="1056.0" y="1880.0" type="curve" smooth="yes"/>
      <point x="1056.0" y="1845.0"/>
      <point x="1085.0" y="1816.0"/>
    </contour>
  </outline>
</glyph>
<glyph name="copyright" format="2">
  <advance width="2576.0"/>
  <unicode hex="00A9"/>
  <note>
Stroke R: 116
Stroke B: 160
</note>
  <outline>
    <contour>
      <point x="722.0" y="1024.0" type="curve" smooth="yes"/>
      <point x="722.0" y="696.0"/>
      <point x="988.0" y="430.0"/>
      <point x="1316.0" y="430.0" type="curve" smooth="yes"/>
      <point x="1552.0" y="430.0"/>
      <point x="1736.0" y="568.0"/>
      <point x="1812.0" y="768.0" type="curve"/>
      <point x="1740.0" y="768.0" type="line"/>
      <point x="1670.0" y="604.0"/>
      <point x="1516.0" y="494.0"/>
      <point x="1316.0" y="494.0" type="curve" smooth="yes"/>
      <point x="1024.0" y="494.0"/>
      <point x="786.0" y="732.0"/>
      <point x="786.0" y="1024.0" type="curve" smooth="yes"/>
      <point x="786.0" y="1318.0"/>
      <point x="1024.0" y="1554.0"/>
      <point x="1316.0" y="1554.0" type="curve" smooth="yes"/>
      <point x="1516.0" y="1554.0"/>
      <point x="1670.0" y="1444.0"/>
      <point x="1740.0" y="1280.0" type="curve"/>
      <point x="1812.0" y="1280.0" type="line"/>
      <point x="1736.0" y="1480.0"/>
      <point x="1552.0" y="1618.0"/>
      <point x="1316.0" y="1618.0" type="curve" smooth="yes"/>
      <point x="988.0" y="1618.0"/>
      <point x="722.0" y="1352.0"/>
    </contour>
    <component base="circlewhite"/>
  </outline>
</glyph>
<glyph name="registered" format="2">
  <advance width="1888.0"/>
  <unicode hex="00AE"/>
  <note>
Stroke L: 32
Stroke R: 96
Stroke B: 112
</note>
  <outline>
    <contour>
      <point x="690.0" y="916.0" type="line"/>
      <point x="754.0" y="916.0" type="line"/>
      <point x="754.0" y="1590.0" type="line"/>
      <point x="1004.0" y="1590.0" type="line" smooth="yes"/>
      <point x="1120.0" y="1590.0"/>
      <point x="1178.0" y="1532.0"/>
      <point x="1178.0" y="1434.0" type="curve" smooth="yes"/>
      <point x="1178.0" y="1336.0"/>
      <point x="1120.0" y="1274.0"/>
      <point x="1004.0" y="1274.0" type="curve" smooth="yes"/>
      <point x="724.0" y="1274.0" type="line"/>
      <point x="724.0" y="1210.0" type="line"/>
      <point x="1006.0" y="1210.0" type="line" smooth="yes"/>
      <point x="1158.0" y="1210.0"/>
      <point x="1242.0" y="1306.0"/>
      <point x="1242.0" y="1434.0" type="curve" smooth="yes"/>
      <point x="1242.0" y="1562.0"/>
      <point x="1158.0" y="1654.0"/>
      <point x="1006.0" y="1654.0" type="curve" smooth="yes"/>
      <point x="690.0" y="1654.0" type="line"/>
    </contour>
    <contour>
      <point x="1090.0" y="1248.0" type="line"/>
      <point x="1020.0" y="1248.0" type="line"/>
      <point x="1198.0" y="916.0" type="line"/>
      <point x="1272.0" y="916.0" type="line"/>
    </contour>
    <contour>
      <point x="944.0" y="476.0" type="curve" smooth="yes"/>
      <point x="1386.0" y="476.0"/>
      <point x="1744.0" y="834.0"/>
      <point x="1744.0" y="1276.0" type="curve" smooth="yes"/>
      <point x="1744.0" y="1718.0"/>
      <point x="1386.0" y="2076.0"/>
      <point x="944.0" y="2076.0" type="curve" smooth="yes"/>
      <point x="502.0" y="2076.0"/>
      <point x="144.0" y="1718.0"/>
      <point x="144.0" y="1276.0" type="curve" smooth="yes"/>
      <point x="144.0" y="834.0"/>
      <point x="502.0" y="476.0"/>
    </contour>
    <contour>
      <point x="944.0" y="540.0" type="curve" smooth="yes"/>
      <point x="537.0" y="540.0"/>
      <point x="208.0" y="869.0"/>
      <point x="208.0" y="1276.0" type="curve" smooth="yes"/>
      <point x="208.0" y="1683.0"/>
      <point x="537.0" y="2012.0"/>
      <point x="944.0" y="2012.0" type="curve" smooth="yes"/>
      <point x="1351.0" y="2012.0"/>
      <point x="1680.0" y="1683.0"/>
      <point x="1680.0" y="1276.0" type="curve" smooth="yes"/>
      <point x="1680.0" y="869.0"/>
      <point x="1351.0" y="540.0"/>
    </contour>
  </outline>
</glyph>
<glyph name="macron" format="2">
  <advance width="824.0"/>
  <unicode hex="00AF"/>
  <guideline x="752.0" y="1880.0" angle="0.0"/>
  <outline>
    <contour>
      <point x="732.0" y="1912.0" type="line"/>
      <point x="92.0" y="1912.0" type="line"/>
      <point x="92.0" y="1848.0" type="line"/>
      <point x="732.0" y="1848.0" type="line"/>
    </contour>
  </outline>
</glyph>
<glyph name="cedilla" format="2">
  <advance width="576.0"/>
  <unicode hex="00B8"/>
  <outline>
    <contour>
      <point x="262.0" y="8.0" type="line"/>
      <point x="234.0" y="-132.0" type="line"/>
      <point x="380.0" y="-129.0"/>
      <point x="455.0" y="-189.0"/>
      <point x="456.0" y="-304.0" type="curve" smooth="yes"/>
      <point x="455.0" y="-402.0"/>
      <point x="397.0" y="-447.0"/>
      <point x="248.0" y="-452.0" type="curve"/>
      <point x="250.0" y="-516.0" type="line"/>
      <point x="426.0" y="-510.0"/>
      <point x="519.0" y="-445.0"/>
      <point x="520.0" y="-304.0" type="curve" smooth="yes"/>
      <point x="519.0" y="-180.0"/>
      <point x="448.0" y="-93.0"/>
      <point x="312.0" y="-72.0" type="curve"/>
      <point x="326.0" y="8.0" type="line"/>
    </contour>
  </outline>
</glyph>
<glyph name="OE" format="2">
  <advance width="2596.0"/>
  <unicode hex="0152"/>
  <note>
!post:RemoveOverlap
</note>
  <outline>
    <contour>
      <point x="1052.0" y="0.0" type="curve" smooth="yes"/>
      <point x="1304.0" y="0.0" type="line"/>
      <point x="1304.0" y="64.0" type="line"/>
      <point x="1052.0" y="64.0" type="line" smooth="yes"/>
      <point x="581.0" y="64.0"/>
      <point x="268.0" y="456.0"/>
      <point x="268.0" y="1024.0" type="curve" smooth="yes"/>
      <point x="268.0" y="1600.0"/>
      <point x="588.0" y="1986.0"/>
      <point x="1052.0" y="1984.0" type="curve" smooth="yes"/>
      <point x="1304.0" y="1984.0" type="line"/>
      <point x="1304.0" y="2048.0" type="line"/>
      <point x="1052.0" y="2048.0" type="line" smooth="yes"/>
      <point x="547.0" y="2048.0"/>
      <point x="204.0" y="1633.0"/>
      <point x="204.0" y="1024.0" type="curve" smooth="yes"/>
      <point x="204.0" y="416.0"/>
      <point x="546.0" y="0.0"/>
    </contour>
    <component base="E" xOffset="952.0"/>
  </outline>
</glyph>
<glyph name="Nhook" format="2">
  <advance width="2112.0"/>
  <unicode hex="019D"/>
  <outline>
    <contour>
      <point x="252.0" y="0.0" type="line"/>
      <point x="252.0" y="-228.0" type="line" smooth="yes"/>
      <point x="251.0" y="-428.0"/>
      <point x="168.0" y="-493.0"/>
      <point x="24.0" y="-492.0" type="curve"/>
      <point x="-8.0" y="-493.0"/>
      <point x="-28.0" y="-484.0"/>
      <point x="-40.0" y="-480.0" type="curve"/>
      <point x="-40.0" y="-564.0" type="line"/>
      <point x="-20.0" y="-576.0"/>
      <point x="-13.0" y="-576.0"/>
      <point x="32.0" y="-576.0" type="curve"/>
      <point x="216.0" y="-576.0"/>
      <point x="314.0" y="-366.0"/>
      <point x="316.0" y="-236.0" type="curve" smooth="yes"/>
      <point x="316.0" y="0.0" type="line"/>
    </contour>
    <component base="N" xOffset="-64.0"/>
  </outline>
</glyph>
<glyph name="Nsmallcap" format="2">
  <advance width="1696.0"/>
  <unicode hex="0274"/>
  <outline>
    <contour>
      <point x="1424.0" y="1536.0" type="line"/>
      <point x="1360.0" y="1536.0" type="line"/>
      <point x="1360.0" y="120.0" type="line"/>
      <point x="1352.0" y="120.0" type="line"/>
      <point x="336.0" y="1536.0" type="line"/>
      <point x="272.0" y="1536.0" type="line"/>
      <point x="272.0" y="0.0" type="line"/>
      <point x="336.0" y="0.0" type="line"/>
      <point x="336.0" y="1416.0" type="line"/>
      <point x="344.0" y="1416.0" type="line"/>
      <point x="1360.0" y="0.0" type="line"/>
      <point x="1424.0" y="0.0" type="line"/>
    </contour>
  </outline>
</glyph>
<glyph name="rturnrthook" format="2">
  <advance width="884.0"/>
  <unicode hex="027B"/>
  <outline>
    <contour>
      <point x="864.0" y="-540.0" type="curve" smooth="yes"/>
      <point x="880.0" y="-540.0"/>
      <point x="900.0" y="-540.0"/>
      <point x="916.0" y="-540.0" type="curve"/>
      <point x="916.0" y="-476.0" type="line"/>
      <point x="900.0" y="-476.0"/>
      <point x="880.0" y="-476.0"/>
      <point x="864.0" y="-476.0" type="curve" smooth="yes"/>
      <point x="735.0" y="-476.0"/>
      <point x="644.0" y="-385.0"/>
      <point x="644.0" y="-256.0" type="curve" smooth="yes"/>
      <point x="644.0" y="0.0" type="line"/>
      <point x="580.0" y="0.0" type="line"/>
      <point x="580.0" y="-256.0" type="line" smooth="yes"/>
      <point x="580.0" y="-422.0"/>
      <point x="698.0" y="-540.0"/>
    </contour>
    <component base="rturn"/>
  </outline>
</glyph>
<glyph name="rrthook.1" format="2">
  <advance width="1020.0"/>
  <unicode hex="027D"/>
  <outline>
    <contour>
      <point x="556.0" y="-540.0" type="curve" smooth="yes"/>
      <point x="572.0" y="-540.0"/>
      <point x="592.0" y="-540.0"/>
      <point x="608.0" y="-540.0" type="curve"/>
      <point x="608.0" y="-476.0" type="line"/>
      <point x="592.0" y="-476.0"/>
      <point x="572.0" y="-476.0"/>
      <point x="556.0" y="-476.0" type="curve" smooth="yes"/>
      <point x="427.0" y="-476.0"/>
      <point x="336.0" y="-385.0"/>
      <point x="336.0" y="-256.0" type="curve" smooth="yes"/>
      <point x="336.0" y="0.0" type="line"/>
      <point x="272.0" y="0.0" type="line"/>
      <point x="272.0" y="-256.0" type="line" smooth="yes"/>
      <point x="272.0" y="-422.0"/>
      <point x="390.0" y="-540.0"/>
    </contour>
    <component base="r.1"/>
  </outline>
</glyph>
<glyph name="zrthook" format="2">
  <advance width="1520.0"/>
  <unicode hex="0290"/>
  <outline>
    <contour>
      <point x="1084.0" y="0.0" type="line"/>
      <point x="1084.0" y="-264.0" type="line" smooth="yes"/>
      <point x="1084.0" y="-485.0"/>
      <point x="1254.0" y="-600.0"/>
      <point x="1424.0" y="-600.0" type="curve" smooth="yes"/>
      <point x="1449.0" y="-600.0"/>
      <point x="1507.0" y="-596.0"/>
      <point x="1520.0" y="-588.0" type="curve"/>
      <point x="1520.0" y="-464.0" type="line"/>
      <point x="1516.0" y="-472.0"/>
      <point x="1475.0" y="-470.0"/>
      <point x="1476.0" y="-472.0" type="curve" smooth="yes"/>
      <point x="1541.0" y="-603.0"/>
      <point x="1256.0" y="-434.0"/>
      <point x="1256.0" y="-264.0" type="curve" smooth="yes"/>
      <point x="1256.0" y="0.0" type="line"/>
    </contour>
    <component base="z"/>
  </outline>
</glyph>
<glyph name="commareversedmod" format="2">
  <advance width="724.0"/>
  <unicode hex="02BD"/>
  <outline>
    <contour>
      <point x="416.0" y="1364.0" type="curve"/>
      <point x="468.0" y="1364.0" type="line"/>
      <point x="440.0" y="1516.0"/>
      <point x="392.0" y="1762.0"/>
      <point x="344.0" y="2032.0" type="curve" smooth="yes"/>
      <point x="324.0" y="2144.0" type="line"/>
      <point x="256.0" y="2144.0" type="line"/>
      <point x="276.0" y="2040.0" type="line" smooth="yes"/>
      <point x="313.0" y="1846.0"/>
      <point x="368.0" y="1514.0"/>
    </contour>
  </outline>
</glyph>
<glyph name="ringhalfright" format="2">
  <advance width="424.0"/>
  <unicode hex="02BE"/>
  <outline>
    <contour>
      <point x="32.0" y="1528.0" type="line"/>
      <point x="193.0" y="1528.0"/>
      <point x="316.0" y="1647.0"/>
      <point x="316.0" y="1802.0" type="curve" smooth="yes"/>
      <point x="316.0" y="1959.0"/>
      <point x="195.0" y="2076.0"/>
      <point x="32.0" y="2076.0" type="curve"/>
      <point x="32.0" y="2012.0" type="line"/>
      <point x="160.0" y="2012.0"/>
      <point x="252.0" y="1924.0"/>
      <point x="252.0" y="1802.0" type="curve" smooth="yes"/>
      <point x="252.0" y="1682.0"/>
      <point x="158.0" y="1592.0"/>
      <point x="32.0" y="1592.0" type="curve"/>
    </contour>
  </outline>
</glyph>
<glyph name="ringhalfleft" format="2">
  <advance width="424.0"/>
  <unicode hex="02BF"/>
  <outline>
    <contour>
      <point x="392.0" y="1528.0" type="curve"/>
      <point x="392.0" y="1592.0" type="line"/>
      <point x="266.0" y="1592.0"/>
      <point x="172.0" y="1682.0"/>
      <point x="172.0" y="1802.0" type="curve" smooth="yes"/>
      <point x="172.0" y="1924.0"/>
      <point x="264.0" y="2012.0"/>
      <point x="392.0" y="2012.0" type="curve"/>
      <point x="392.0" y="2076.0" type="line"/>
      <point x="229.0" y="2076.0"/>
      <point x="108.0" y="1959.0"/>
      <point x="108.0" y="1802.0" type="curve" smooth="yes"/>
      <point x="108.0" y="1647.0"/>
      <point x="231.0" y="1528.0"/>
    </contour>
  </outline>
</glyph>
<glyph name="arrowheadleftmod" format="2">
  <advance width="1264.0"/>
  <unicode hex="02C2"/>
  <outline>
    <contour>
      <point x="180.0" y="1292.0" type="line"/>
      <point x="288.0" y="1338.0" type="line"/>
      <point x="1152.0" y="1736.0" type="line"/>
      <point x="1152.0" y="1806.0" type="line"/>
      <point x="180.0" y="1358.0" type="line"/>
    </contour>
    <contour>
      <point x="1152.0" y="840.0" type="line"/>
      <point x="1152.0" y="910.0" type="line"/>
      <point x="288.0" y="1308.0" type="line"/>
      <point x="180.0" y="1354.0" type="line"/>
      <point x="180.0" y="1288.0" type="line"/>
    </contour>
  </outline>
</glyph>
<glyph name="arrowheaddownmod" format="2">
  <advance width="1170.0"/>
  <unicode hex="02C5"/>
  <outline>
    <contour>
      <point x="554.0" y="820.0" type="line"/>
      <point x="620.0" y="820.0" type="line"/>
      <point x="1068.0" y="1792.0" type="line"/>
      <point x="998.0" y="1792.0" type="line"/>
      <point x="600.0" y="928.0" type="line"/>
    </contour>
    <contour>
      <point x="550.0" y="820.0" type="line"/>
      <point x="616.0" y="820.0" type="line"/>
      <point x="570.0" y="928.0" type="line"/>
      <point x="172.0" y="1792.0" type="line"/>
      <point x="102.0" y="1792.0" type="line"/>
    </contour>
  </outline>
</glyph>
<glyph name="breve" format="2">
  <advance width="1168.0"/>
  <unicode hex="02D8"/>
  <outline>
    <contour>
      <point x="744.0" y="2048.0" type="line"/>
      <point x="744.0" y="1942.0"/>
      <point x="688.0" y="1884.0"/>
      <point x="584.0" y="1884.0" type="curve" smooth="yes"/>
      <point x="480.0" y="1884.0"/>
      <point x="424.0" y="1942.0"/>
      <point x="424.0" y="2048.0" type="curve"/>
      <point x="360.0" y="2048.0" type="line"/>
      <point x="360.0" y="1907.0"/>
      <point x="444.0" y="1820.0"/>
      <point x="584.0" y="1820.0" type="curve" smooth="yes"/>
      <point x="724.0" y="1820.0"/>
      <point x="808.0" y="1907.0"/>
      <point x="808.0" y="2048.0" type="curve"/>
    </contour>
  </outline>
</glyph>
<glyph name="uni02FB" format="2">
  <advance width="608.0"/>
  <unicode hex="02FB"/>
  <outline>
    <contour>
      <point x="96.0" y="-536.0" type="line"/>
      <point x="160.0" y="-536.0" type="line"/>
      <point x="160.0" y="-88.0" type="line"/>
      <point x="96.0" y="-88.0" type="line"/>
    </contour>
    <contour>
      <point x="96.0" y="-536.0" type="line"/>
      <point x="512.0" y="-536.0" type="line"/>
      <point x="512.0" y="-472.0" type="line"/>
      <point x="96.0" y="-472.0" type="line"/>
    </contour>
  </outline>
</glyph>
<glyph name="dblgravecmb" format="2">
  <unicode hex="030F"/>
  <outline>
    <contour>
      <point x="-892.0" y="1760.0" type="line"/>
      <point x="-828.0" y="1760.0" type="line"/>
      <point x="-1126.0" y="2192.0" type="line"/>
      <point x="-1208.0" y="2192.0" type="line"/>
    </contour>
    <contour>
      <point x="-672.0" y="1760.0" type="line"/>
      <point x="-608.0" y="1760.0" type="line"/>
      <point x="-848.0" y="2192.0" type="line"/>
      <point x="-926.0" y="2192.0" type="line"/>
    </contour>
  </outline>
</glyph>
<glyph name="seagullsubnosp" format="2">
  <unicode hex="033C"/>
  <note>
position under "x".
offset curve settings:
L: 32,32,0%
R: 70,80,0%
B: 110,90,0%
</note>
  <guideline x="-700.0" y="-202.0" angle="90.0"/>
  <outline>
    <contour>
      <point x="-672.0" y="-480.0" type="line"/>
      <point x="-672.0" y="-369.0"/>
      <point x="-607.0" y="-310.0"/>
      <point x="-496.0" y="-310.0" type="curve" smooth="yes"/>
      <point x="-385.0" y="-310.0"/>
      <point x="-320.0" y="-369.0"/>
      <point x="-320.0" y="-480.0" type="curve"/>
      <point x="-256.0" y="-480.0" type="line"/>
      <point x="-256.0" y="-335.0"/>
      <point x="-348.0" y="-246.0"/>
      <point x="-496.0" y="-246.0" type="curve" smooth="yes"/>
      <point x="-644.0" y="-246.0"/>
      <point x="-736.0" y="-335.0"/>
      <point x="-736.0" y="-480.0" type="curve"/>
    </contour>
    <contour>
      <point x="-1088.0" y="-480.0" type="line"/>
      <point x="-1088.0" y="-369.0"/>
      <point x="-1023.0" y="-310.0"/>
      <point x="-912.0" y="-310.0" type="curve" smooth="yes"/>
      <point x="-801.0" y="-310.0"/>
      <point x="-736.0" y="-369.0"/>
      <point x="-736.0" y="-480.0" type="curve"/>
      <point x="-672.0" y="-480.0" type="line"/>
      <point x="-672.0" y="-335.0"/>
      <point x="-764.0" y="-246.0"/>
      <point x="-912.0" y="-246.0" type="curve" smooth="yes"/>
      <point x="-1060.0" y="-246.0"/>
      <point x="-1152.0" y="-335.0"/>
      <point x="-1152.0" y="-480.0" type="curve"/>
    </contour>
  </outline>
</glyph>
<glyph name="beta" format="2">
  <advance width="1648.0"/>
  <unicode hex="03B2"/>
  <outline>
    <contour>
      <point x="684.0" y="1184.0" type="line"/>
      <point x="684.0" y="1064.0" type="line"/>
      <point x="944.0" y="1064.0" type="line" smooth="yes"/>
      <point x="1219.0" y="1062.0"/>
      <point x="1366.0" y="781.0"/>
      <point x="1368.0" y="556.0" type="curve" smooth="yes"/>
      <point x="1366.0" y="290.0"/>
      <point x="1167.0" y="48.0"/>
      <point x="836.0" y="48.0" type="curve" smooth="yes"/>
      <point x="537.0" y="48.0"/>
      <point x="349.0" y="245.0"/>
      <point x="352.0" y="472.0" type="curve"/>
      <point x="352.0" y="224.0" type="line"/>
      <point x="368.0" y="232.0" type="line"/>
      <point x="477.0" y="18.0"/>
      <point x="646.0" y="-35.0"/>
      <point x="804.0" y="-36.0" type="curve" smooth="yes"/>
      <point x="1179.0" y="-35.0"/>
      <point x="1429.0" y="252.0"/>
      <point x="1432.0" y="592.0" type="curve" smooth="yes"/>
      <point x="1429.0" y="840.0"/>
      <point x="1304.0" y="1184.0"/>
      <point x="892.0" y="1184.0" type="curve" smooth="yes"/>
    </contour>
    <contour>
      <point x="820.0" y="2076.0" type="curve" smooth="yes"/>
      <point x="496.0" y="2076.0"/>
      <point x="269.0" y="1847.0"/>
      <point x="272.0" y="1600.0" type="curve"/>
      <point x="272.0" y="-576.0" type="line"/>
      <point x="352.0" y="-576.0" type="line"/>
      <point x="352.0" y="1628.0" type="line" smooth="yes"/>
      <point x="349.0" y="1838.0"/>
      <point x="567.0" y="2007.0"/>
      <point x="820.0" y="2008.0" type="curve" smooth="yes"/>
      <point x="1069.0" y="2007.0"/>
      <point x="1289.0" y="1838.0"/>
      <point x="1292.0" y="1612.0" type="curve" smooth="yes"/>
      <point x="1289.0" y="1381.0"/>
      <point x="1081.0" y="1193.0"/>
      <point x="816.0" y="1192.0" type="curve" smooth="yes"/>
      <point x="684.0" y="1192.0" type="line"/>
      <point x="684.0" y="1056.0" type="line"/>
      <point x="764.0" y="1056.0" type="line" smooth="yes"/>
      <point x="1189.0" y="1054.0"/>
      <point x="1341.0" y="1327.0"/>
      <point x="1344.0" y="1548.0" type="curve" smooth="yes"/>
      <point x="1341.0" y="1744.0"/>
      <point x="1221.0" y="2076.0"/>
    </contour>
  </outline>
</glyph>
<glyph name="chi" format="2">
  <advance width="1802.0"/>
  <unicode hex="03C7"/>
  <note>
stroke R: 110, 50%
stroke B: ({Filter="OffsetCurve;250;200;1;0.5;";})
</note>
  <outline>
    <contour>
      <point x="356.0" y="-576.0" type="line"/>
      <point x="428.0" y="-576.0" type="line"/>
      <point x="956.0" y="416.0" type="line"/>
      <point x="1340.0" y="-334.0" type="line" smooth="yes"/>
      <point x="1447.0" y="-542.0"/>
      <point x="1500.0" y="-576.0"/>
      <point x="1696.0" y="-576.0" type="curve" smooth="yes"/>
      <point x="1754.0" y="-576.0" type="line"/>
      <point x="1754.0" y="-512.0" type="line"/>
      <point x="1696.0" y="-512.0" type="line" smooth="yes"/>
      <point x="1526.0" y="-512.0"/>
      <point x="1493.0" y="-493.0"/>
      <point x="1396.0" y="-304.0" type="curve" smooth="yes"/>
      <point x="982.0" y="504.0" type="line"/>
      <point x="932.0" y="504.0" type="line"/>
    </contour>
    <contour>
      <point x="930.0" y="466.0" type="line"/>
      <point x="982.0" y="466.0" type="line"/>
      <point x="1558.0" y="1536.0" type="line"/>
      <point x="1486.0" y="1536.0" type="line"/>
      <point x="956.0" y="552.0" type="line"/>
      <point x="570.0" y="1294.0" type="line" smooth="yes"/>
      <point x="462.0" y="1502.0"/>
      <point x="412.0" y="1536.0"/>
      <point x="214.0" y="1536.0" type="curve" smooth="yes"/>
      <point x="156.0" y="1536.0" type="line"/>
      <point x="156.0" y="1472.0" type="line"/>
      <point x="214.0" y="1472.0" type="line" smooth="yes"/>
      <point x="384.0" y="1472.0"/>
      <point x="417.0" y="1451.0"/>
      <point x="514.0" y="1264.0" type="curve" smooth="yes"/>
    </contour>
  </outline>
</glyph>
<glyph name="zecyrillic" format="2">
  <advance width="1364.0"/>
  <unicode hex="0437"/>
  <note>
stroke L: ({Filter="OffsetCurve;32;32;1;1;";})
</note>
  <guideline x="22.0" y="768.0" angle="0.0"/>
  <outline>
    <contour>
      <point x="168.0" y="392.0" type="line"/>
      <point x="178.0" y="138.0"/>
      <point x="382.0" y="-32.0"/>
      <point x="684.0" y="-32.0" type="curve" smooth="yes"/>
      <point x="1004.0" y="-32.0"/>
      <point x="1204.0" y="158.0"/>
      <point x="1204.0" y="414.0" type="curve" smooth="yes"/>
      <point x="1204.0" y="610.0"/>
      <point x="1085.0" y="766.0"/>
      <point x="942.0" y="796.0" type="curve"/>
      <point x="942.0" y="810.0" type="line"/>
      <point x="1081.0" y="853.0"/>
      <point x="1172.0" y="970.0"/>
      <point x="1172.0" y="1132.0" type="curve" smooth="yes"/>
      <point x="1172.0" y="1376.0"/>
      <point x="986.0" y="1556.0"/>
      <point x="700.0" y="1556.0" type="curve" smooth="yes"/>
      <point x="426.0" y="1556.0"/>
      <point x="216.0" y="1386.0"/>
      <point x="204.0" y="1132.0" type="curve"/>
      <point x="268.0" y="1132.0" type="line"/>
      <point x="280.0" y="1344.0"/>
      <point x="454.0" y="1492.0"/>
      <point x="700.0" y="1492.0" type="curve" smooth="yes"/>
      <point x="940.0" y="1492.0"/>
      <point x="1108.0" y="1350.0"/>
      <point x="1108.0" y="1132.0" type="curve" smooth="yes"/>
      <point x="1108.0" y="956.0"/>
      <point x="996.0" y="864.0"/>
      <point x="824.0" y="832.0" type="curve"/>
      <point x="556.0" y="832.0" type="line"/>
      <point x="556.0" y="768.0" type="line"/>
      <point x="832.0" y="768.0" type="line"/>
      <point x="988.0" y="760.0"/>
      <point x="1140.0" y="624.0"/>
      <point x="1140.0" y="414.0" type="curve" smooth="yes"/>
      <point x="1140.0" y="190.0"/>
      <point x="966.0" y="32.0"/>
      <point x="684.0" y="32.0" type="curve" smooth="yes"/>
      <point x="414.0" y="32.0"/>
      <point x="242.0" y="178.0"/>
      <point x="232.0" y="392.0" type="curve"/>
    </contour>
  </outline>
</glyph>
<glyph name="encyrillic" format="2">
  <advance width="1642.0"/>
  <unicode hex="043D"/>
  <outline>
    <contour>
      <point x="1328.0" y="800.0" type="line"/>
      <point x="314.0" y="800.0" type="line"/>
      <point x="314.0" y="736.0" type="line"/>
      <point x="1328.0" y="736.0" type="line"/>
    </contour>
    <contour>
      <point x="336.0" y="1536.0" type="line"/>
      <point x="272.0" y="1536.0" type="line"/>
      <point x="272.0" y="0.0" type="line"/>
      <point x="336.0" y="0.0" type="line"/>
    </contour>
    <contour>
      <point x="1362.0" y="1536.0" type="line"/>
      <point x="1298.0" y="1536.0" type="line"/>
      <point x="1298.0" y="0.0" type="line"/>
      <point x="1362.0" y="0.0" type="line"/>
    </contour>
  </outline>
</glyph>
<glyph name="cheabkhasiancyrillic" format="2">
  <advance width="1992.0"/>
  <unicode hex="04BD"/>
  <outline>
    <contour>
      <point x="192.0" y="1108.0" type="line"/>
      <point x="189.0" y="876.0"/>
      <point x="305.0" y="769.0"/>
      <point x="560.0" y="768.0" type="curve"/>
      <point x="560.0" y="832.0" type="line"/>
      <point x="341.0" y="833.0"/>
      <point x="254.0" y="912.0"/>
      <point x="256.0" y="1108.0" type="curve"/>
    </contour>
    <component base="e" xOffset="368.0"/>
  </outline>
</glyph>
<glyph name="uni1DFF" format="2">
  <unicode hex="1DFF"/>
  <guideline x="-238.0" y="-416.0" angle="0.0"/>
  <outline>
    <contour>
      <point x="-1588.0" y="-732.0" type="line"/>
      <point x="-696.0" y="-450.0" type="line"/>
      <point x="-696.0" y="-384.0" type="line"/>
      <point x="-804.0" y="-430.0" type="line"/>
      <point x="-1588.0" y="-662.0" type="line"/>
    </contour>
    <contour>
      <point x="-696.0" y="-446.0" type="line"/>
      <point x="-696.0" y="-380.0" type="line"/>
      <point x="-1588.0" y="-100.0" type="line"/>
      <point x="-1588.0" y="-170.0" type="line"/>
      <point x="-804.0" y="-400.0" type="line"/>
    </contour>
    <contour>
      <point x="-278.0" y="-748.0" type="line"/>
      <point x="-212.0" y="-748.0" type="line"/>
      <point x="-258.0" y="-640.0" type="line"/>
      <point x="-596.0" y="-96.0" type="line"/>
      <point x="-666.0" y="-96.0" type="line"/>
    </contour>
    <contour>
      <point x="-274.0" y="-748.0" type="line"/>
      <point x="-208.0" y="-748.0" type="line"/>
      <point x="180.0" y="-96.0" type="line"/>
      <point x="110.0" y="-96.0" type="line"/>
      <point x="-228.0" y="-640.0" type="line"/>
    </contour>
  </outline>
</glyph>
<glyph name="uni1FBE" format="2">
  <advance width="668.0"/>
  <unicode hex="1FBE"/>
  <note>
similar or identical to iotasubnosp
</note>
  <outline>
    <contour>
      <point x="388.0" y="-600.0" type="curve" smooth="yes"/>
      <point x="406.0" y="-600.0"/>
      <point x="438.0" y="-596.0"/>
      <point x="452.0" y="-592.0" type="curve"/>
      <point x="434.0" y="-530.0" type="line"/>
      <point x="425.0" y="-533.0"/>
      <point x="401.0" y="-536.0"/>
      <point x="388.0" y="-536.0" type="curve" smooth="yes"/>
      <point x="350.0" y="-536.0"/>
      <point x="320.0" y="-499.0"/>
      <point x="320.0" y="-444.0" type="curve" smooth="yes"/>
      <point x="320.0" y="-120.0" type="line"/>
      <point x="256.0" y="-120.0" type="line"/>
      <point x="256.0" y="-444.0" type="line" smooth="yes"/>
      <point x="256.0" y="-535.0"/>
      <point x="314.0" y="-600.0"/>
    </contour>
  </outline>
</glyph>
<glyph name="uni1FFD" format="2">
  <advance width="668.0"/>
  <unicode hex="1FFD"/>
  <outline>
    <contour>
      <point x="314.0" y="1728.0" type="line"/>
      <point x="350.0" y="1728.0" type="line"/>
      <point x="624.0" y="2192.0" type="line"/>
      <point x="624.0" y="2196.0" type="line"/>
      <point x="554.0" y="2196.0" type="line"/>
      <point x="314.0" y="1732.0" type="line"/>
    </contour>
  </outline>
</glyph>
<glyph name="afii300" format="2">
  <unicode hex="200F"/>
  <outline>
    <contour>
      <point x="-804.0" y="1716.0" type="line"/>
      <point x="-412.0" y="2032.0" type="line"/>
      <point x="-512.0" y="2032.0" type="line"/>
      <point x="-888.0" y="1728.0" type="line"/>
    </contour>
    <contour>
      <point x="-280.0" y="-276.0" type="line"/>
      <point x="-216.0" y="-276.0" type="line"/>
      <point x="-216.0" y="1736.0" type="line"/>
      <point x="-280.0" y="1736.0" type="line"/>
    </contour>
    <contour>
      <point x="-512.0" y="1472.0" type="line"/>
      <point x="-412.0" y="1472.0" type="line"/>
      <point x="-804.0" y="1740.0" type="line"/>
      <point x="-888.0" y="1728.0" type="line"/>
    </contour>
    <contour>
      <point x="-818.0" y="1696.0" type="line"/>
      <point x="-216.0" y="1696.0" type="line"/>
      <point x="-216.0" y="1760.0" type="line"/>
      <point x="-818.0" y="1760.0" type="line"/>
    </contour>
  </outline>
</glyph>
<glyph name="figuredash" format="2">
  <advance width="1728.0"/>
  <unicode hex="2012"/>
  <guideline x="1102.0" y="878.0" angle="0.0"/>
  <outline>
    <contour>
      <point x="1728.0" y="910.0" type="line"/>
      <point x="0.0" y="910.0" type="line"/>
      <point x="0.0" y="846.0" type="line"/>
      <point x="1728.0" y="846.0" type="line"/>
    </contour>
  </outline>
</glyph>
<glyph name="bullet" format="2">
  <advance width="1584.0"/>
  <unicode hex="2022"/>
  <guideline x="1104.0" y="816.0" angle="0.0"/>
  <outline>
    <contour>
      <point x="792.0" y="560.0" type="curve" smooth="yes"/>
      <point x="932.0" y="560.0"/>
      <point x="1047.0" y="675.0"/>
      <point x="1048.0" y="816.0" type="curve" smooth="yes"/>
      <point x="1049.0" y="957.0"/>
      <point x="932.0" y="1072.0"/>
      <point x="792.0" y="1072.0" type="curve" smooth="yes"/>
      <point x="650.0" y="1072.0"/>
      <point x="535.0" y="957.0"/>
      <point x="536.0" y="816.0" type="curve" smooth="yes"/>
      <point x="537.0" y="675.0"/>
      <point x="650.0" y="560.0"/>
    </contour>
  </outline>
</glyph>
<glyph name="trianglebullet" format="2">
  <advance width="1584.0"/>
  <unicode hex="2023"/>
  <guideline x="1016.0" y="816.0" angle="0.0"/>
  <outline>
    <contour>
      <point x="608.0" y="544.0" type="line"/>
      <point x="1058.0" y="816.0" type="line"/>
      <point x="608.0" y="1088.0" type="line"/>
    </contour>
  </outline>
</glyph>
<glyph name="hyphenbullet" format="2">
  <advance width="1584.0"/>
  <unicode hex="2043"/>
  <guideline x="1104.0" y="816.0" angle="0.0"/>
  <outline>
    <contour>
      <point x="1064.0" y="848.0" type="line"/>
      <point x="520.0" y="848.0" type="line"/>
      <point x="520.0" y="784.0" type="line"/>
      <point x="1064.0" y="784.0" type="line"/>
    </contour>
  </outline>
</glyph>
<glyph name="blackleftbullet" format="2">
  <advance width="1752.0"/>
  <unicode hex="204C"/>
  <note>
Based on paragraph. Slightly shorter.
</note>
  <guideline x="1044.0" y="816.0" angle="0.0"/>
  <outline>
    <contour>
      <point x="940.0" y="292.0" type="curve" smooth="yes"/>
      <point x="1352.0" y="292.0" type="line"/>
      <point x="1352.0" y="356.0" type="line"/>
      <point x="1096.0" y="356.0" type="line"/>
      <point x="1096.0" y="1276.0" type="line"/>
      <point x="1352.0" y="1276.0" type="line"/>
      <point x="1352.0" y="1340.0" type="line"/>
      <point x="940.0" y="1340.0" type="line" smooth="yes"/>
      <point x="582.0" y="1340.0"/>
      <point x="384.0" y="1130.0"/>
      <point x="384.0" y="816.0" type="curve" smooth="yes"/>
      <point x="384.0" y="502.0"/>
      <point x="582.0" y="292.0"/>
    </contour>
    <contour>
      <point x="1288.0" y="292.0" type="line"/>
      <point x="1352.0" y="292.0" type="line"/>
      <point x="1352.0" y="1340.0" type="line"/>
      <point x="1288.0" y="1340.0" type="line"/>
    </contour>
  </outline>
</glyph>
<glyph name="blackrightbullet" format="2">
  <advance width="1752.0"/>
  <unicode hex="204D"/>
  <outline>
    <contour>
      <point x="400.0" y="292.0" type="line"/>
      <point x="812.0" y="292.0" type="line" smooth="yes"/>
      <point x="1170.0" y="292.0"/>
      <point x="1368.0" y="502.0"/>
      <point x="1368.0" y="816.0" type="curve" smooth="yes"/>
      <point x="1368.0" y="1130.0"/>
      <point x="1170.0" y="1340.0"/>
      <point x="812.0" y="1340.0" type="curve" smooth="yes"/>
      <point x="400.0" y="1340.0" type="line"/>
      <point x="400.0" y="1276.0" type="line"/>
      <point x="656.0" y="1276.0" type="line"/>
      <point x="656.0" y="356.0" type="line"/>
      <point x="400.0" y="356.0" type="line"/>
    </contour>
    <contour>
      <point x="400.0" y="292.0" type="line"/>
      <point x="464.0" y="292.0" type="line"/>
      <point x="464.0" y="1340.0" type="line"/>
      <point x="400.0" y="1340.0" type="line"/>
    </contour>
  </outline>
</glyph>
<glyph name="reversedsemicolon" format="2">
  <advance width="728.0"/>
  <unicode hex="204F"/>
  <outline>
    <contour>
      <point x="432.0" y="-500.0" type="curve"/>
      <point x="484.0" y="-500.0" type="line"/>
      <point x="456.0" y="-348.0"/>
      <point x="408.0" y="-102.0"/>
      <point x="360.0" y="168.0" type="curve" smooth="yes"/>
      <point x="340.0" y="280.0" type="line"/>
      <point x="272.0" y="280.0" type="line"/>
      <point x="292.0" y="176.0" type="line" smooth="yes"/>
      <point x="329.0" y="-18.0"/>
      <point x="384.0" y="-350.0"/>
    </contour>
    <contour>
      <point x="336.0" y="1192.0" type="curve" smooth="yes"/>
      <point x="376.0" y="1192.0"/>
      <point x="408.0" y="1224.0"/>
      <point x="408.0" y="1264.0" type="curve" smooth="yes"/>
      <point x="408.0" y="1304.0"/>
      <point x="376.0" y="1336.0"/>
      <point x="336.0" y="1336.0" type="curve" smooth="yes"/>
      <point x="296.0" y="1336.0"/>
      <point x="264.0" y="1304.0"/>
      <point x="264.0" y="1264.0" type="curve" smooth="yes"/>
      <point x="264.0" y="1224.0"/>
      <point x="296.0" y="1192.0"/>
    </contour>
  </outline>
</glyph>
<glyph name="published" format="2">
  <advance width="1888.0"/>
  <unicode hex="2117"/>
  <outline>
    <contour>
      <point x="726.0" y="916.0" type="line"/>
      <point x="790.0" y="916.0" type="line"/>
      <point x="790.0" y="1590.0" type="line"/>
      <point x="1040.0" y="1590.0" type="line" smooth="yes"/>
      <point x="1156.0" y="1590.0"/>
      <point x="1214.0" y="1512.0"/>
      <point x="1214.0" y="1414.0" type="curve" smooth="yes"/>
      <point x="1214.0" y="1316.0"/>
      <point x="1156.0" y="1234.0"/>
      <point x="1040.0" y="1234.0" type="curve" smooth="yes"/>
      <point x="760.0" y="1234.0" type="line"/>
      <point x="760.0" y="1170.0" type="line"/>
      <point x="1042.0" y="1170.0" type="line" smooth="yes"/>
      <point x="1194.0" y="1170.0"/>
      <point x="1278.0" y="1285.0"/>
      <point x="1278.0" y="1414.0" type="curve" smooth="yes"/>
      <point x="1278.0" y="1543.0"/>
      <point x="1194.0" y="1654.0"/>
      <point x="1042.0" y="1654.0" type="curve" smooth="yes"/>
      <point x="726.0" y="1654.0" type="line"/>
    </contour>
    <contour>
      <point x="944.0" y="476.0" type="curve" smooth="yes"/>
      <point x="1386.0" y="476.0"/>
      <point x="1744.0" y="834.0"/>
      <point x="1744.0" y="1276.0" type="curve" smooth="yes"/>
      <point x="1744.0" y="1718.0"/>
      <point x="1386.0" y="2076.0"/>
      <point x="944.0" y="2076.0" type="curve" smooth="yes"/>
      <point x="502.0" y="2076.0"/>
      <point x="144.0" y="1718.0"/>
      <point x="144.0" y="1276.0" type="curve" smooth="yes"/>
      <point x="144.0" y="834.0"/>
      <point x="502.0" y="476.0"/>
    </contour>
    <contour>
      <point x="944.0" y="540.0" type="curve" smooth="yes"/>
      <point x="538.0" y="540.0"/>
      <point x="208.0" y="870.0"/>
      <point x="208.0" y="1276.0" type="curve" smooth="yes"/>
      <point x="208.0" y="1684.0"/>
      <point x="538.0" y="2012.0"/>
      <point x="944.0" y="2012.0" type="curve" smooth="yes"/>
      <point x="1352.0" y="2012.0"/>
      <point x="1680.0" y="1684.0"/>
      <point x="1680.0" y="1276.0" type="curve" smooth="yes"/>
      <point x="1680.0" y="870.0"/>
      <point x="1352.0" y="540.0"/>
    </contour>
  </outline>
</glyph>
<glyph name="servicemark" format="2">
  <advance width="1640.0"/>
  <unicode hex="2120"/>
  <note>
stroke R: 58, 50%
stroke B: x=120/y=86, 50%
</note>
  <outline>
    <contour>
      <point x="382.0" y="1308.0" type="curve" smooth="yes"/>
      <point x="545.0" y="1308.0"/>
      <point x="659.0" y="1392.0"/>
      <point x="658.0" y="1512.0" type="curve" smooth="yes"/>
      <point x="657.0" y="1613.0"/>
      <point x="573.0" y="1688.0"/>
      <point x="438.0" y="1712.0" type="curve" smooth="yes"/>
      <point x="348.0" y="1728.0" type="line" smooth="yes"/>
      <point x="256.0" y="1744.0"/>
      <point x="198.0" y="1796.0"/>
      <point x="196.0" y="1860.0" type="curve" smooth="yes"/>
      <point x="194.0" y="1933.0"/>
      <point x="272.0" y="1987.0"/>
      <point x="390.0" y="1988.0" type="curve" smooth="yes"/>
      <point x="511.0" y="1989.0"/>
      <point x="582.0" y="1934.0"/>
      <point x="582.0" y="1842.0" type="curve"/>
      <point x="646.0" y="1842.0" type="line"/>
      <point x="646.0" y="1971.0"/>
      <point x="545.0" y="2053.0"/>
      <point x="390.0" y="2052.0" type="curve" smooth="yes"/>
      <point x="237.0" y="2051.0"/>
      <point x="130.0" y="1971.0"/>
      <point x="132.0" y="1858.0" type="curve" smooth="yes"/>
      <point x="134.0" y="1762.0"/>
      <point x="216.0" y="1685.0"/>
      <point x="336.0" y="1664.0" type="curve" smooth="yes"/>
      <point x="426.0" y="1648.0" type="line" smooth="yes"/>
      <point x="532.0" y="1629.0"/>
      <point x="593.0" y="1579.0"/>
      <point x="594.0" y="1512.0" type="curve" smooth="yes"/>
      <point x="595.0" y="1430.0"/>
      <point x="510.0" y="1372.0"/>
      <point x="382.0" y="1372.0" type="curve" smooth="yes"/>
      <point x="251.0" y="1372.0"/>
      <point x="176.0" y="1432.0"/>
      <point x="176.0" y="1536.0" type="curve"/>
      <point x="112.0" y="1536.0" type="line"/>
      <point x="112.0" y="1395.0"/>
      <point x="216.0" y="1308.0"/>
    </contour>
    <contour>
      <point x="808.0" y="1312.0" type="line"/>
      <point x="872.0" y="1312.0" type="line"/>
      <point x="872.0" y="2048.0" type="line"/>
      <point x="808.0" y="2048.0" type="line"/>
    </contour>
    <contour>
      <point x="1126.0" y="1312.0" type="line"/>
      <point x="1194.0" y="1312.0" type="line"/>
      <point x="1502.0" y="2048.0" type="line"/>
      <point x="1432.0" y="2048.0" type="line"/>
      <point x="1160.0" y="1396.0" type="line"/>
      <point x="888.0" y="2048.0" type="line"/>
      <point x="818.0" y="2048.0" type="line"/>
    </contour>
    <contour>
      <point x="1448.0" y="1312.0" type="line"/>
      <point x="1512.0" y="1312.0" type="line"/>
      <point x="1512.0" y="2048.0" type="line"/>
      <point x="1448.0" y="2048.0" type="line"/>
    </contour>
  </outline>
</glyph>
<glyph name="tel" format="2">
  <advance width="1816.0"/>
  <unicode hex="2121"/>
  <outline>
    <contour>
      <point x="792.0" y="1312.0" type="line"/>
      <point x="1176.0" y="1312.0" type="line"/>
      <point x="1176.0" y="1376.0" type="line"/>
      <point x="856.0" y="1376.0" type="line"/>
      <point x="856.0" y="1984.0" type="line"/>
      <point x="1176.0" y="1984.0" type="line"/>
      <point x="1176.0" y="2048.0" type="line"/>
      <point x="792.0" y="2048.0" type="line"/>
    </contour>
    <contour>
      <point x="336.0" y="1312.0" type="line"/>
      <point x="400.0" y="1312.0" type="line"/>
      <point x="400.0" y="2016.0" type="line"/>
      <point x="336.0" y="2016.0" type="line"/>
    </contour>
    <contour>
      <point x="112.0" y="1984.0" type="line"/>
      <point x="624.0" y="1984.0" type="line"/>
      <point x="624.0" y="2048.0" type="line"/>
      <point x="112.0" y="2048.0" type="line"/>
    </contour>
    <contour>
      <point x="824.0" y="1664.0" type="line"/>
      <point x="1112.0" y="1664.0" type="line"/>
      <point x="1112.0" y="1728.0" type="line"/>
      <point x="824.0" y="1728.0" type="line"/>
    </contour>
    <contour>
      <point x="1344.0" y="1312.0" type="line"/>
      <point x="1704.0" y="1312.0" type="line"/>
      <point x="1704.0" y="1376.0" type="line"/>
      <point x="1408.0" y="1376.0" type="line"/>
      <point x="1408.0" y="2048.0" type="line"/>
      <point x="1344.0" y="2048.0" type="line"/>
    </contour>
  </outline>
</glyph>
<glyph name="trademark" format="2">
  <advance width="1624.0"/>
  <unicode hex="2122"/>
  <outline>
    <contour>
      <point x="1110.0" y="1312.0" type="line"/>
      <point x="1178.0" y="1312.0" type="line"/>
      <point x="1486.0" y="2048.0" type="line"/>
      <point x="1416.0" y="2048.0" type="line"/>
      <point x="1144.0" y="1396.0" type="line"/>
      <point x="872.0" y="2048.0" type="line"/>
      <point x="802.0" y="2048.0" type="line"/>
    </contour>
    <contour>
      <point x="792.0" y="1312.0" type="line"/>
      <point x="856.0" y="1312.0" type="line"/>
      <point x="856.0" y="2048.0" type="line"/>
      <point x="792.0" y="2048.0" type="line"/>
    </contour>
    <contour>
      <point x="1432.0" y="1312.0" type="line"/>
      <point x="1496.0" y="1312.0" type="line"/>
      <point x="1496.0" y="2048.0" type="line"/>
      <point x="1432.0" y="2048.0" type="line"/>
    </contour>
    <contour>
      <point x="336.0" y="1312.0" type="line"/>
      <point x="400.0" y="1312.0" type="line"/>
      <point x="400.0" y="2016.0" type="line"/>
      <point x="336.0" y="2016.0" type="line"/>
    </contour>
    <contour>
      <point x="112.0" y="1984.0" type="line"/>
      <point x="624.0" y="1984.0" type="line"/>
      <point x="624.0" y="2048.0" type="line"/>
      <point x="112.0" y="2048.0" type="line"/>
    </contour>
  </outline>
</glyph>
<glyph name="uni213B" format="2">
  <advance width="2076.0"/>
  <unicode hex="213B"/>
  <outline>
    <contour>
      <point x="128.0" y="1312.0" type="line"/>
      <point x="192.0" y="1312.0" type="line"/>
      <point x="192.0" y="1632.0" type="line"/>
      <point x="476.0" y="1632.0" type="line"/>
      <point x="476.0" y="1696.0" type="line"/>
      <point x="192.0" y="1696.0" type="line"/>
      <point x="192.0" y="1984.0" type="line"/>
      <point x="508.0" y="1984.0" type="line"/>
      <point x="508.0" y="2048.0" type="line"/>
      <point x="128.0" y="2048.0" type="line"/>
    </contour>
    <contour>
      <point x="580.0" y="1312.0" type="line"/>
      <point x="650.0" y="1312.0" type="line"/>
      <point x="906.0" y="1962.0" type="line"/>
      <point x="1162.0" y="1312.0" type="line"/>
      <point x="1232.0" y="1312.0" type="line"/>
      <point x="940.0" y="2048.0" type="line"/>
      <point x="872.0" y="2048.0" type="line"/>
    </contour>
    <contour>
      <point x="714.0" y="1536.0" type="line"/>
      <point x="1098.0" y="1536.0" type="line"/>
      <point x="1098.0" y="1600.0" type="line"/>
      <point x="714.0" y="1600.0" type="line"/>
    </contour>
    <contour>
      <point x="1378.0" y="1312.0" type="line"/>
      <point x="1456.0" y="1312.0" type="line"/>
      <point x="1956.0" y="2048.0" type="line"/>
      <point x="1878.0" y="2048.0" type="line"/>
    </contour>
    <contour>
      <point x="1886.0" y="1312.0" type="line"/>
      <point x="1964.0" y="1312.0" type="line"/>
      <point x="1464.0" y="2048.0" type="line"/>
      <point x="1386.0" y="2048.0" type="line"/>
    </contour>
  </outline>
</glyph>
<glyph name="upArrow" format="2">
  <advance width="2688.0"/>
  <unicode hex="2191"/>
  <outline>
    <contour>
      <point x="1312.0" y="0.0" type="line"/>
      <point x="1376.0" y="0.0" type="line"/>
      <point x="1376.0" y="1938.0" type="line"/>
      <point x="2196.0" y="1118.0" type="line"/>
      <point x="2240.0" y="1164.0" type="line"/>
      <point x="1344.0" y="2060.0" type="line"/>
      <point x="446.0" y="1164.0" type="line"/>
      <point x="492.0" y="1118.0" type="line"/>
      <point x="1312.0" y="1938.0" type="line"/>
    </contour>
  </outline>
</glyph>
<glyph name="rightArrow" format="2">
  <advance width="2688.0"/>
  <unicode hex="2192"/>
  <outline>
    <contour>
      <point x="1514.0" y="0.0" type="line"/>
      <point x="2410.0" y="896.0" type="line"/>
      <point x="1514.0" y="1792.0" type="line"/>
      <point x="1468.0" y="1748.0" type="line"/>
      <point x="2288.0" y="928.0" type="line"/>
      <point x="352.0" y="928.0" type="line"/>
      <point x="352.0" y="864.0" type="line"/>
      <point x="2288.0" y="864.0" type="line"/>
      <point x="1468.0" y="46.0" type="line"/>
    </contour>
  </outline>
</glyph>
<glyph name="leftRightArrow" format="2">
  <advance width="3776.0"/>
  <unicode hex="2194"/>
  <outline>
    <contour>
      <point x="1174.0" y="0.0" type="line"/>
      <point x="1220.0" y="46.0" type="line"/>
      <point x="400.0" y="864.0" type="line"/>
      <point x="3376.0" y="864.0" type="line"/>
      <point x="2556.0" y="46.0" type="line"/>
      <point x="2602.0" y="0.0" type="line"/>
      <point x="3498.0" y="896.0" type="line"/>
      <point x="2602.0" y="1792.0" type="line"/>
      <point x="2556.0" y="1748.0" type="line"/>
      <point x="3376.0" y="928.0" type="line"/>
      <point x="400.0" y="928.0" type="line"/>
      <point x="1220.0" y="1748.0" type="line"/>
      <point x="1174.0" y="1792.0" type="line"/>
      <point x="278.0" y="896.0" type="line"/>
    </contour>
  </outline>
</glyph>
<glyph name="upDownArrow" format="2">
  <advance width="2688.0"/>
  <unicode hex="2195"/>
  <note>
vertical align with hyphen
</note>
  <guideline x="1102.0" y="878.0" angle="0.0"/>
  <outline>
    <contour>
      <point x="1344.0" y="-612.0" type="line"/>
      <point x="2240.0" y="284.0" type="line"/>
      <point x="2196.0" y="330.0" type="line"/>
      <point x="1376.0" y="-490.0" type="line"/>
      <point x="1376.0" y="2246.0" type="line"/>
      <point x="2196.0" y="1426.0" type="line"/>
      <point x="2240.0" y="1472.0" type="line"/>
      <point x="1344.0" y="2368.0" type="line"/>
      <point x="448.0" y="1472.0" type="line"/>
      <point x="494.0" y="1426.0" type="line"/>
      <point x="1312.0" y="2246.0" type="line"/>
      <point x="1312.0" y="-490.0" type="line"/>
      <point x="494.0" y="330.0" type="line"/>
      <point x="448.0" y="284.0" type="line"/>
    </contour>
  </outline>
</glyph>
<glyph name="northWestArrow" format="2">
  <advance width="2688.0"/>
  <unicode hex="2196"/>
  <outline>
    <contour>
      <point x="624.0" y="780.0" type="line"/>
      <point x="690.0" y="780.0" type="line"/>
      <point x="688.0" y="1938.0" type="line"/>
      <point x="2056.0" y="570.0" type="line"/>
      <point x="2102.0" y="616.0" type="line"/>
      <point x="734.0" y="1984.0" type="line"/>
      <point x="1892.0" y="1984.0" type="line"/>
      <point x="1892.0" y="2048.0" type="line"/>
      <point x="624.0" y="2048.0" type="line"/>
    </contour>
  </outline>
</glyph>
<glyph name="northEastArrow" format="2">
  <advance width="2688.0"/>
  <unicode hex="2197"/>
  <outline>
    <contour>
      <point x="632.0" y="570.0" type="line"/>
      <point x="2000.0" y="1938.0" type="line"/>
      <point x="1998.0" y="780.0" type="line"/>
      <point x="2064.0" y="780.0" type="line"/>
      <point x="2064.0" y="2048.0" type="line"/>
      <point x="796.0" y="2048.0" type="line"/>
      <point x="796.0" y="1984.0" type="line"/>
      <point x="1954.0" y="1984.0" type="line"/>
      <point x="586.0" y="616.0" type="line"/>
    </contour>
  </outline>
</glyph>
<glyph name="leftHookArrow" format="2">
  <advance width="3218.0"/>
  <unicode hex="21A9"/>
  <note>
stroke offset curve:
L head: 32, 0%
L stem: 32, 50%
R stem: 110, 50%
R head: 108, 0%
B head: 200, 0%
B stem: 208, 50%
</note>
  <guideline x="2944.0" y="1244.0" angle="90.0"/>
  <guideline x="2310.0" y="2016.0" angle="0.0"/>
  <outline>
    <contour>
      <point x="336.0" y="864.0" type="line"/>
      <point x="2352.0" y="864.0" type="line" smooth="yes"/>
      <point x="2679.0" y="864.0"/>
      <point x="2944.0" y="1129.0"/>
      <point x="2944.0" y="1456.0" type="curve" smooth="yes"/>
      <point x="2944.0" y="1783.0"/>
      <point x="2679.0" y="2048.0"/>
      <point x="2352.0" y="2048.0" type="curve" smooth="yes"/>
      <point x="2240.0" y="2048.0" type="line"/>
      <point x="2240.0" y="1984.0" type="line"/>
      <point x="2352.0" y="1984.0" type="line" smooth="yes"/>
      <point x="2643.0" y="1984.0"/>
      <point x="2880.0" y="1747.0"/>
      <point x="2880.0" y="1456.0" type="curve" smooth="yes"/>
      <point x="2880.0" y="1165.0"/>
      <point x="2643.0" y="928.0"/>
      <point x="2352.0" y="928.0" type="curve" smooth="yes"/>
      <point x="336.0" y="928.0" type="line"/>
    </contour>
    <contour>
      <point x="1174.0" y="0.0" type="line"/>
      <point x="1219.0" y="45.0" type="line"/>
      <point x="369.0" y="896.0" type="line"/>
      <point x="1219.0" y="1747.0" type="line"/>
      <point x="1174.0" y="1792.0" type="line"/>
      <point x="278.0" y="896.0" type="line"/>
    </contour>
  </outline>
</glyph>
<glyph name="rightHookArrow" format="2">
  <advance width="3218.0"/>
  <unicode hex="21AA"/>
  <note>
Mirror copy of leftHookArrow
</note>
  <outline>
    <contour>
      <point x="866.0" y="864.0" type="curve" smooth="yes"/>
      <point x="2882.0" y="864.0" type="line"/>
      <point x="2882.0" y="928.0" type="line"/>
      <point x="866.0" y="928.0" type="line" smooth="yes"/>
      <point x="575.0" y="928.0"/>
      <point x="338.0" y="1165.0"/>
      <point x="338.0" y="1456.0" type="curve" smooth="yes"/>
      <point x="338.0" y="1747.0"/>
      <point x="575.0" y="1984.0"/>
      <point x="866.0" y="1984.0" type="curve" smooth="yes"/>
      <point x="978.0" y="1984.0" type="line"/>
      <point x="978.0" y="2048.0" type="line"/>
      <point x="866.0" y="2048.0" type="line" smooth="yes"/>
      <point x="539.0" y="2048.0"/>
      <point x="274.0" y="1783.0"/>
      <point x="274.0" y="1456.0" type="curve" smooth="yes"/>
      <point x="274.0" y="1129.0"/>
      <point x="539.0" y="864.0"/>
    </contour>
    <contour>
      <point x="2044.0" y="0.0" type="line"/>
      <point x="2940.0" y="896.0" type="line"/>
      <point x="2044.0" y="1792.0" type="line"/>
      <point x="2000.0" y="1748.0" type="line"/>
      <point x="2850.0" y="896.0" type="line"/>
      <point x="2000.0" y="46.0" type="line"/>
    </contour>
  </outline>
</glyph>
<glyph name="upTipLeftArrow" format="2">
  <advance width="2622.0"/>
  <unicode hex="21B0"/>
  <note>
Mirror copy of carriagereturn
</note>
  <outline>
    <contour>
      <point x="812.0" y="1124.0" type="line"/>
      <point x="812.0" y="2112.0" type="line"/>
      <point x="278.0" y="1618.0" type="line"/>
    </contour>
    <contour>
      <point x="690.0" y="1586.0" type="line"/>
      <point x="2336.0" y="1586.0" type="line"/>
      <point x="2336.0" y="1650.0" type="line"/>
      <point x="690.0" y="1650.0" type="line"/>
    </contour>
    <contour>
      <point x="2278.0" y="0.0" type="line"/>
      <point x="2342.0" y="0.0" type="line"/>
      <point x="2342.0" y="1650.0" type="line"/>
      <point x="2278.0" y="1650.0" type="line"/>
    </contour>
  </outline>
</glyph>
<glyph name="upTipRightArrow" format="2">
  <advance width="2622.0"/>
  <unicode hex="21B1"/>
  <note>
Mirror copy of carriagereturn
</note>
  <outline>
    <contour>
      <point x="1810.0" y="1124.0" type="line"/>
      <point x="2344.0" y="1618.0" type="line"/>
      <point x="1810.0" y="2112.0" type="line"/>
    </contour>
    <contour>
      <point x="280.0" y="0.0" type="line"/>
      <point x="344.0" y="0.0" type="line"/>
      <point x="344.0" y="1650.0" type="line"/>
      <point x="280.0" y="1650.0" type="line"/>
    </contour>
    <contour>
      <point x="286.0" y="1586.0" type="line"/>
      <point x="1932.0" y="1586.0" type="line"/>
      <point x="1932.0" y="1650.0" type="line"/>
      <point x="286.0" y="1650.0" type="line"/>
    </contour>
  </outline>
</glyph>
<glyph name="downTipRightArrow" format="2">
  <advance width="2622.0"/>
  <unicode hex="21B3"/>
  <note>
Mirror copy of carriagereturn
</note>
  <guideline x="2062.0" y="896.0" angle="0.0"/>
  <outline>
    <contour>
      <point x="1810.0" y="402.0" type="line"/>
      <point x="2344.0" y="896.0" type="line"/>
      <point x="1810.0" y="1390.0" type="line"/>
    </contour>
    <contour>
      <point x="280.0" y="864.0" type="line"/>
      <point x="344.0" y="864.0" type="line"/>
      <point x="344.0" y="2048.0" type="line"/>
      <point x="280.0" y="2048.0" type="line"/>
    </contour>
    <contour>
      <point x="286.0" y="864.0" type="line"/>
      <point x="1932.0" y="864.0" type="line"/>
      <point x="1932.0" y="928.0" type="line"/>
      <point x="286.0" y="928.0" type="line"/>
    </contour>
  </outline>
</glyph>
<glyph name="rightCornerDownArrow" format="2">
  <advance width="2670.0"/>
  <unicode hex="21B4"/>
  <note>
Mirror copy of carriagereturn
</note>
  <outline>
    <contour>
      <point x="1898.0" y="-16.0" type="line"/>
      <point x="2392.0" y="518.0" type="line"/>
      <point x="1404.0" y="518.0" type="line"/>
    </contour>
    <contour>
      <point x="1866.0" y="396.0" type="line"/>
      <point x="1930.0" y="396.0" type="line"/>
      <point x="1930.0" y="2042.0" type="line"/>
      <point x="1866.0" y="2042.0" type="line"/>
    </contour>
    <contour>
      <point x="280.0" y="1984.0" type="line"/>
      <point x="1930.0" y="1984.0" type="line"/>
      <point x="1930.0" y="2048.0" type="line"/>
      <point x="280.0" y="2048.0" type="line"/>
    </contour>
  </outline>
</glyph>
<glyph name="carriagereturn" format="2">
  <advance width="2622.0"/>
  <unicode hex="21B5"/>
  <guideline x="2062.0" y="896.0" angle="0.0"/>
  <outline>
    <contour>
      <point x="812.0" y="402.0" type="line"/>
      <point x="812.0" y="1390.0" type="line"/>
      <point x="278.0" y="896.0" type="line"/>
    </contour>
    <contour>
      <point x="690.0" y="864.0" type="line"/>
      <point x="2336.0" y="864.0" type="line"/>
      <point x="2336.0" y="928.0" type="line"/>
      <point x="690.0" y="928.0" type="line"/>
    </contour>
    <contour>
      <point x="2278.0" y="864.0" type="line"/>
      <point x="2342.0" y="864.0" type="line"/>
      <point x="2342.0" y="2048.0" type="line"/>
      <point x="2278.0" y="2048.0" type="line"/>
    </contour>
  </outline>
</glyph>
<glyph name="anticlockwiseOpenCircleArrow" format="2">
  <advance width="2688.0"/>
  <unicode hex="21BA"/>
  <outline>
    <contour>
      <point x="1344.0" y="1984.0" type="line"/>
      <point x="1875.0" y="1984.0"/>
      <point x="2303.0" y="1555.0"/>
      <point x="2304.0" y="1024.0" type="curve" smooth="yes"/>
      <point x="2305.0" y="493.0"/>
      <point x="1876.0" y="64.0"/>
      <point x="1344.0" y="64.0" type="curve" smooth="yes"/>
      <point x="813.0" y="64.0"/>
      <point x="383.0" y="494.0"/>
      <point x="384.0" y="1024.0" type="curve"/>
      <point x="320.0" y="1024.0" type="line"/>
      <point x="319.0" y="458.0"/>
      <point x="779.0" y="0.0"/>
      <point x="1344.0" y="0.0" type="curve" smooth="yes"/>
      <point x="1911.0" y="0.0"/>
      <point x="2369.0" y="458.0"/>
      <point x="2368.0" y="1024.0" type="curve" smooth="yes"/>
      <point x="2367.0" y="1590.0"/>
      <point x="1911.0" y="2048.0"/>
      <point x="1344.0" y="2048.0" type="curve"/>
    </contour>
    <contour>
      <point x="1408.0" y="1508.0" type="line"/>
      <point x="1408.0" y="2496.0" type="line"/>
      <point x="874.0" y="2002.0" type="line"/>
    </contour>
  </outline>
</glyph>
<glyph name="clockwiseOpenCircleArrow" format="2">
  <advance width="2688.0"/>
  <unicode hex="21BB"/>
  <outline>
    <contour>
      <point x="1344.0" y="0.0" type="curve" smooth="yes"/>
      <point x="1909.0" y="0.0"/>
      <point x="2369.0" y="458.0"/>
      <point x="2368.0" y="1024.0" type="curve"/>
      <point x="2304.0" y="1024.0" type="line"/>
      <point x="2305.0" y="494.0"/>
      <point x="1875.0" y="64.0"/>
      <point x="1344.0" y="64.0" type="curve" smooth="yes"/>
      <point x="812.0" y="64.0"/>
      <point x="383.0" y="493.0"/>
      <point x="384.0" y="1024.0" type="curve" smooth="yes"/>
      <point x="385.0" y="1555.0"/>
      <point x="813.0" y="1984.0"/>
      <point x="1344.0" y="1984.0" type="curve"/>
      <point x="1344.0" y="2048.0" type="line"/>
      <point x="777.0" y="2048.0"/>
      <point x="321.0" y="1590.0"/>
      <point x="320.0" y="1024.0" type="curve" smooth="yes"/>
      <point x="319.0" y="458.0"/>
      <point x="777.0" y="0.0"/>
    </contour>
    <contour>
      <point x="1280.0" y="1508.0" type="line"/>
      <point x="1814.0" y="2002.0" type="line"/>
      <point x="1280.0" y="2496.0" type="line"/>
    </contour>
  </outline>
</glyph>
<glyph name="pageup" format="2">
  <advance width="1500.0"/>
  <unicode hex="21DE"/>
  <outline>
    <contour>
      <point x="256.0" y="1536.0" type="line"/>
      <point x="1244.0" y="1536.0" type="line"/>
      <point x="750.0" y="2070.0" type="line"/>
    </contour>
    <contour>
      <point x="334.0" y="576.0" type="line"/>
      <point x="1166.0" y="576.0" type="line"/>
      <point x="1166.0" y="640.0" type="line"/>
      <point x="334.0" y="640.0" type="line"/>
    </contour>
    <contour>
      <point x="718.0" y="0.0" type="line"/>
      <point x="782.0" y="0.0" type="line"/>
      <point x="782.0" y="1718.0" type="line"/>
      <point x="718.0" y="1718.0" type="line"/>
    </contour>
    <contour>
      <point x="334.0" y="1024.0" type="line"/>
      <point x="1166.0" y="1024.0" type="line"/>
      <point x="1166.0" y="1088.0" type="line"/>
      <point x="334.0" y="1088.0" type="line"/>
    </contour>
  </outline>
</glyph>
<glyph name="pagedown" format="2">
  <advance width="1500.0"/>
  <unicode hex="21DF"/>
  <outline>
    <contour>
      <point x="750.0" y="-22.0" type="line"/>
      <point x="1244.0" y="512.0" type="line"/>
      <point x="256.0" y="512.0" type="line"/>
    </contour>
    <contour>
      <point x="334.0" y="960.0" type="line"/>
      <point x="1166.0" y="960.0" type="line"/>
      <point x="1166.0" y="1024.0" type="line"/>
      <point x="334.0" y="1024.0" type="line"/>
    </contour>
    <contour>
      <point x="718.0" y="330.0" type="line"/>
      <point x="782.0" y="330.0" type="line"/>
      <point x="782.0" y="2048.0" type="line"/>
      <point x="718.0" y="2048.0" type="line"/>
    </contour>
    <contour>
      <point x="334.0" y="1408.0" type="line"/>
      <point x="1166.0" y="1408.0" type="line"/>
      <point x="1166.0" y="1472.0" type="line"/>
      <point x="334.0" y="1472.0" type="line"/>
    </contour>
  </outline>
</glyph>
<glyph name="arrowtableft" format="2">
  <advance width="2696.0"/>
  <unicode hex="21E4"/>
  <outline>
    <contour>
      <point x="1056.0" y="530.0" type="line"/>
      <point x="1056.0" y="1518.0" type="line"/>
      <point x="522.0" y="1024.0" type="line"/>
    </contour>
    <contour>
      <point x="256.0" y="512.0" type="line"/>
      <point x="320.0" y="512.0" type="line"/>
      <point x="320.0" y="1536.0" type="line"/>
      <point x="256.0" y="1536.0" type="line"/>
    </contour>
    <contour>
      <point x="934.0" y="992.0" type="line"/>
      <point x="2440.0" y="992.0" type="line"/>
      <point x="2440.0" y="1056.0" type="line"/>
      <point x="934.0" y="1056.0" type="line"/>
    </contour>
  </outline>
</glyph>
<glyph name="arrowtabright" format="2">
  <advance width="2696.0"/>
  <unicode hex="21E5"/>
  <note>
Mirror copy of arrowtableft
</note>
  <outline>
    <contour>
      <point x="1640.0" y="530.0" type="line"/>
      <point x="2174.0" y="1024.0" type="line"/>
      <point x="1640.0" y="1518.0" type="line"/>
    </contour>
    <contour>
      <point x="256.0" y="992.0" type="line"/>
      <point x="1762.0" y="992.0" type="line"/>
      <point x="1762.0" y="1056.0" type="line"/>
      <point x="256.0" y="1056.0" type="line"/>
    </contour>
    <contour>
      <point x="2376.0" y="512.0" type="line"/>
      <point x="2440.0" y="512.0" type="line"/>
      <point x="2440.0" y="1536.0" type="line"/>
      <point x="2376.0" y="1536.0" type="line"/>
    </contour>
  </outline>
</glyph>
<glyph name="upWhiteArrow" format="2">
  <advance width="2432.0"/>
  <unicode hex="21E7"/>
  <note>
based of off upBlackArrow
stroke:
L: 32,32,100%,keepCom.
R: 100,90,100%,keepCom.
B: 208,150,100%,keepCom.
</note>
  <outline>
    <contour>
      <point x="256.0" y="1248.0" type="line"/>
      <point x="800.0" y="1248.0" type="line"/>
      <point x="800.0" y="0.0" type="line"/>
      <point x="1632.0" y="0.0" type="line"/>
      <point x="1632.0" y="1248.0" type="line"/>
      <point x="2176.0" y="1248.0" type="line"/>
      <point x="1216.0" y="2208.0" type="line"/>
    </contour>
    <contour>
      <point x="411.0" y="1312.0" type="line"/>
      <point x="1216.0" y="2117.0" type="line"/>
      <point x="2021.0" y="1312.0" type="line"/>
      <point x="1568.0" y="1312.0" type="line"/>
      <point x="1568.0" y="64.0" type="line"/>
      <point x="864.0" y="64.0" type="line"/>
      <point x="864.0" y="1312.0" type="line"/>
    </contour>
  </outline>
</glyph>
<glyph name="capslock" format="2">
  <advance width="2432.0"/>
  <unicode hex="21EA"/>
  <note>
Based on upWhiteArrow
</note>
  <outline>
    <contour>
      <point x="800.0" y="688.0" type="line"/>
      <point x="1632.0" y="688.0" type="line"/>
      <point x="1632.0" y="1248.0" type="line"/>
      <point x="2176.0" y="1248.0" type="line"/>
      <point x="1216.0" y="2208.0" type="line"/>
      <point x="256.0" y="1248.0" type="line"/>
      <point x="800.0" y="1248.0" type="line"/>
    </contour>
    <contour>
      <point x="800.0" y="0.0" type="line"/>
      <point x="1632.0" y="0.0" type="line"/>
      <point x="1632.0" y="448.0" type="line"/>
      <point x="800.0" y="448.0" type="line"/>
    </contour>
    <contour>
      <point x="864.0" y="64.0" type="line"/>
      <point x="864.0" y="384.0" type="line"/>
      <point x="1568.0" y="384.0" type="line"/>
      <point x="1568.0" y="64.0" type="line"/>
    </contour>
    <contour>
      <point x="864.0" y="752.0" type="line"/>
      <point x="864.0" y="1312.0" type="line"/>
      <point x="411.0" y="1312.0" type="line"/>
      <point x="1216.0" y="2117.0" type="line"/>
      <point x="2021.0" y="1312.0" type="line"/>
      <point x="1568.0" y="1312.0" type="line"/>
      <point x="1568.0" y="752.0" type="line"/>
    </contour>
  </outline>
</glyph>
<glyph name="control" format="2">
  <advance width="2240.0"/>
  <unicode hex="2303"/>
  <note>
stroke:
L: 32,32,100%
R: 108,108,100%
B: 200,200,100%
</note>
  <outline>
    <contour>
      <point x="345.0" y="1203.0" type="line"/>
      <point x="1120.0" y="1977.0" type="line"/>
      <point x="1895.0" y="1203.0" type="line"/>
      <point x="1940.0" y="1248.0" type="line"/>
      <point x="1120.0" y="2068.0" type="line"/>
      <point x="300.0" y="1248.0" type="line"/>
    </contour>
  </outline>
</glyph>
<glyph name="projective" format="2">
  <advance width="2240.0"/>
  <unicode hex="2305"/>
  <note>
Based on control
</note>
  <outline>
    <contour>
      <point x="304.0" y="1984.0" type="line"/>
      <point x="1936.0" y="1984.0" type="line"/>
      <point x="1936.0" y="2048.0" type="line"/>
      <point x="304.0" y="2048.0" type="line"/>
    </contour>
    <component base="control" yOffset="-512.0"/>
  </outline>
</glyph>
<glyph name="placeofinterestsign" format="2">
  <advance width="2804.0"/>
  <unicode hex="2318"/>
  <outline>
    <contour>
      <point x="736.0" y="-38.0" type="curve"/>
      <point x="955.0" y="-38.0"/>
      <point x="1132.0" y="139.0"/>
      <point x="1132.0" y="358.0" type="curve"/>
      <point x="1132.0" y="690.0" type="line"/>
      <point x="1672.0" y="690.0" type="line"/>
      <point x="1672.0" y="358.0" type="line"/>
      <point x="1672.0" y="139.0"/>
      <point x="1849.0" y="-38.0"/>
      <point x="2068.0" y="-38.0" type="curve"/>
      <point x="2287.0" y="-38.0"/>
      <point x="2464.0" y="139.0"/>
      <point x="2464.0" y="358.0" type="curve"/>
      <point x="2464.0" y="577.0"/>
      <point x="2287.0" y="754.0"/>
      <point x="2068.0" y="754.0" type="curve"/>
      <point x="1736.0" y="754.0" type="line"/>
      <point x="1736.0" y="1294.0" type="line"/>
      <point x="2068.0" y="1294.0" type="line"/>
      <point x="2287.0" y="1294.0"/>
      <point x="2464.0" y="1471.0"/>
      <point x="2464.0" y="1690.0" type="curve" smooth="yes"/>
      <point x="2464.0" y="1909.0"/>
      <point x="2287.0" y="2086.0"/>
      <point x="2068.0" y="2086.0" type="curve" smooth="yes"/>
      <point x="1849.0" y="2086.0"/>
      <point x="1672.0" y="1909.0"/>
      <point x="1672.0" y="1690.0" type="curve"/>
      <point x="1672.0" y="1358.0" type="line"/>
      <point x="1132.0" y="1358.0" type="line"/>
      <point x="1132.0" y="1690.0" type="line"/>
      <point x="1132.0" y="1909.0"/>
      <point x="955.0" y="2086.0"/>
      <point x="736.0" y="2086.0" type="curve"/>
      <point x="517.0" y="2086.0"/>
      <point x="340.0" y="1909.0"/>
      <point x="340.0" y="1690.0" type="curve"/>
      <point x="340.0" y="1471.0"/>
      <point x="517.0" y="1294.0"/>
      <point x="736.0" y="1294.0" type="curve"/>
      <point x="1068.0" y="1294.0" type="line"/>
      <point x="1068.0" y="754.0" type="line"/>
      <point x="736.0" y="754.0" type="line"/>
      <point x="517.0" y="754.0"/>
      <point x="340.0" y="577.0"/>
      <point x="340.0" y="358.0" type="curve"/>
      <point x="340.0" y="139.0"/>
      <point x="517.0" y="-38.0"/>
    </contour>
    <contour>
      <point x="736.0" y="26.0" type="curve"/>
      <point x="553.0" y="26.0"/>
      <point x="404.0" y="175.0"/>
      <point x="404.0" y="358.0" type="curve"/>
      <point x="404.0" y="541.0"/>
      <point x="553.0" y="690.0"/>
      <point x="736.0" y="690.0" type="curve"/>
      <point x="1068.0" y="690.0" type="line"/>
      <point x="1068.0" y="358.0" type="line"/>
      <point x="1068.0" y="175.0"/>
      <point x="919.0" y="26.0"/>
    </contour>
    <contour>
      <point x="736.0" y="1358.0" type="line"/>
      <point x="553.0" y="1358.0"/>
      <point x="404.0" y="1507.0"/>
      <point x="404.0" y="1690.0" type="curve"/>
      <point x="404.0" y="1873.0"/>
      <point x="553.0" y="2022.0"/>
      <point x="736.0" y="2022.0" type="curve"/>
      <point x="919.0" y="2022.0"/>
      <point x="1068.0" y="1873.0"/>
      <point x="1068.0" y="1690.0" type="curve"/>
      <point x="1068.0" y="1358.0" type="line"/>
    </contour>
    <contour>
      <point x="1736.0" y="1358.0" type="line"/>
      <point x="1736.0" y="1690.0" type="line"/>
      <point x="1736.0" y="1873.0"/>
      <point x="1885.0" y="2022.0"/>
      <point x="2068.0" y="2022.0" type="curve" smooth="yes"/>
      <point x="2251.0" y="2022.0"/>
      <point x="2400.0" y="1873.0"/>
      <point x="2400.0" y="1690.0" type="curve" smooth="yes"/>
      <point x="2400.0" y="1507.0"/>
      <point x="2251.0" y="1358.0"/>
      <point x="2068.0" y="1358.0" type="curve"/>
    </contour>
    <contour>
      <point x="2068.0" y="26.0" type="curve"/>
      <point x="1885.0" y="26.0"/>
      <point x="1736.0" y="175.0"/>
      <point x="1736.0" y="358.0" type="curve"/>
      <point x="1736.0" y="690.0" type="line"/>
      <point x="2068.0" y="690.0" type="line"/>
      <point x="2251.0" y="690.0"/>
      <point x="2400.0" y="541.0"/>
      <point x="2400.0" y="358.0" type="curve"/>
      <point x="2400.0" y="175.0"/>
      <point x="2251.0" y="26.0"/>
    </contour>
    <contour>
      <point x="1132.0" y="754.0" type="line"/>
      <point x="1132.0" y="1294.0" type="line"/>
      <point x="1672.0" y="1294.0" type="line"/>
      <point x="1672.0" y="754.0" type="line"/>
    </contour>
  </outline>
</glyph>
<glyph name="option" format="2">
  <advance width="2848.0"/>
  <unicode hex="2325"/>
  <note>
stroke:
L: 32,32,50%
R: 108,110,50%
B: 208,200,50%
</note>
  <outline>
    <contour>
      <point x="1634.0" y="2048.0" type="line"/>
      <point x="1634.0" y="1984.0" type="line"/>
      <point x="2592.0" y="1984.0" type="line"/>
      <point x="2592.0" y="2048.0" type="line"/>
    </contour>
    <contour>
      <point x="256.0" y="1984.0" type="line"/>
      <point x="908.0" y="1984.0" type="line"/>
      <point x="1900.0" y="0.0" type="line"/>
      <point x="2592.0" y="0.0" type="line"/>
      <point x="2592.0" y="64.0" type="line"/>
      <point x="1940.0" y="64.0" type="line"/>
      <point x="948.0" y="2048.0" type="line"/>
      <point x="256.0" y="2048.0" type="line"/>
    </contour>
  </outline>
</glyph>
<glyph name="deleteright" format="2">
  <advance width="3424.0"/>
  <unicode hex="2326"/>
  <outline>
    <contour>
      <point x="256.0" y="0.0" type="line"/>
      <point x="2168.0" y="0.0" type="line"/>
      <point x="3186.0" y="1024.0" type="line"/>
      <point x="2168.0" y="2048.0" type="line"/>
      <point x="256.0" y="2048.0" type="line"/>
    </contour>
    <contour>
      <point x="902.0" y="476.0" type="line"/>
      <point x="1956.0" y="1528.0" type="line"/>
      <point x="1910.0" y="1574.0" type="line"/>
      <point x="856.0" y="522.0" type="line"/>
    </contour>
    <contour>
      <point x="1910.0" y="476.0" type="line"/>
      <point x="1956.0" y="522.0" type="line"/>
      <point x="902.0" y="1574.0" type="line"/>
      <point x="856.0" y="1528.0" type="line"/>
    </contour>
    <contour>
      <point x="320.0" y="64.0" type="line"/>
      <point x="320.0" y="1984.0" type="line"/>
      <point x="2142.0" y="1984.0" type="line"/>
      <point x="3096.0" y="1024.0" type="line"/>
      <point x="2142.0" y="64.0" type="line"/>
    </contour>
  </outline>
</glyph>
<glyph name="clear" format="2">
  <advance width="2808.0"/>
  <unicode hex="2327"/>
  <note>
Based on deleteleft
</note>
  <outline>
    <contour>
      <point x="256.0" y="0.0" type="line"/>
      <point x="2552.0" y="0.0" type="line"/>
      <point x="2552.0" y="2048.0" type="line"/>
      <point x="256.0" y="2048.0" type="line"/>
    </contour>
    <contour>
      <point x="320.0" y="64.0" type="line"/>
      <point x="320.0" y="1984.0" type="line"/>
      <point x="2488.0" y="1984.0" type="line"/>
      <point x="2488.0" y="64.0" type="line"/>
    </contour>
    <contour>
      <point x="1908.0" y="476.0" type="line"/>
      <point x="1954.0" y="522.0" type="line"/>
      <point x="900.0" y="1574.0" type="line"/>
      <point x="854.0" y="1528.0" type="line"/>
    </contour>
    <contour>
      <point x="900.0" y="476.0" type="line"/>
      <point x="1954.0" y="1528.0" type="line"/>
      <point x="1908.0" y="1574.0" type="line"/>
      <point x="854.0" y="522.0" type="line"/>
    </contour>
  </outline>
</glyph>
<glyph name="deleteleft" format="2">
  <advance width="3424.0"/>
  <unicode hex="232B"/>
  <note>
stroke:
L: 32
R outer: 108,110,100%
R x: 104,104,50%
B outer: 208,200,100%
B x: 200,200,50%
</note>
  <outline>
    <contour>
      <point x="1256.0" y="0.0" type="line"/>
      <point x="3168.0" y="0.0" type="line"/>
      <point x="3168.0" y="2048.0" type="line"/>
      <point x="1256.0" y="2048.0" type="line"/>
      <point x="238.0" y="1024.0" type="line"/>
    </contour>
    <contour>
      <point x="1283.0" y="64.0" type="line"/>
      <point x="328.0" y="1024.0" type="line"/>
      <point x="1283.0" y="1984.0" type="line"/>
      <point x="3104.0" y="1984.0" type="line"/>
      <point x="3104.0" y="64.0" type="line"/>
    </contour>
    <contour>
      <point x="2569.0" y="521.0" type="line"/>
      <point x="1515.0" y="1573.0" type="line"/>
      <point x="1469.0" y="1527.0" type="line"/>
      <point x="2523.0" y="475.0" type="line"/>
    </contour>
    <contour>
      <point x="1515.0" y="475.0" type="line"/>
      <point x="2569.0" y="1527.0" type="line"/>
      <point x="2523.0" y="1573.0" type="line"/>
      <point x="1469.0" y="521.0" type="line"/>
    </contour>
  </outline>
</glyph>
<glyph name="alternativekeysymbol" format="2">
  <advance width="2848.0"/>
  <unicode hex="2387"/>
  <note>
Mirror copy of option
</note>
  <outline>
    <contour>
      <point x="256.0" y="0.0" type="line"/>
      <point x="948.0" y="0.0" type="line"/>
      <point x="1940.0" y="1984.0" type="line"/>
      <point x="2592.0" y="1984.0" type="line"/>
      <point x="2592.0" y="2048.0" type="line"/>
      <point x="1900.0" y="2048.0" type="line"/>
      <point x="908.0" y="64.0" type="line"/>
      <point x="256.0" y="64.0" type="line"/>
    </contour>
    <contour>
      <point x="1634.0" y="0.0" type="line"/>
      <point x="2592.0" y="0.0" type="line"/>
      <point x="2592.0" y="64.0" type="line"/>
      <point x="1634.0" y="64.0" type="line"/>
    </contour>
  </outline>
</glyph>
<glyph name="brokenCircleNorthWestArrow" format="2">
  <advance width="2688.0"/>
  <unicode hex="238B"/>
  <note>
L: 32
R arrowhead: 108, 50%
R circle: 110, 100%
B: 208
</note>
  <guideline x="576.0" y="1792.0" angle="45.0"/>
  <outline>
    <contour>
      <point x="440.0" y="1884.0" type="line"/>
      <point x="1322.0" y="1002.0" type="line"/>
      <point x="1368.0" y="1048.0" type="line"/>
      <point x="486.0" y="1930.0" type="line"/>
    </contour>
    <contour>
      <point x="320.0" y="1536.0" type="line"/>
      <point x="832.0" y="2048.0" type="line"/>
      <point x="320.0" y="2048.0" type="line"/>
    </contour>
    <contour>
      <point x="1344.0" y="1984.0" type="line"/>
      <point x="1875.0" y="1984.0"/>
      <point x="2303.0" y="1555.0"/>
      <point x="2304.0" y="1024.0" type="curve" smooth="yes"/>
      <point x="2305.0" y="493.0"/>
      <point x="1876.0" y="64.0"/>
      <point x="1344.0" y="64.0" type="curve" smooth="yes"/>
      <point x="813.0" y="64.0"/>
      <point x="383.0" y="494.0"/>
      <point x="384.0" y="1024.0" type="curve"/>
      <point x="320.0" y="1024.0" type="line"/>
      <point x="319.0" y="458.0"/>
      <point x="779.0" y="0.0"/>
      <point x="1344.0" y="0.0" type="curve" smooth="yes"/>
      <point x="1911.0" y="0.0"/>
      <point x="2369.0" y="458.0"/>
      <point x="2368.0" y="1024.0" type="curve" smooth="yes"/>
      <point x="2367.0" y="1590.0"/>
      <point x="1911.0" y="2048.0"/>
      <point x="1344.0" y="2048.0" type="curve"/>
    </contour>
  </outline>
</glyph>
<glyph name="returnsymbol" format="2">
  <advance width="2622.0"/>
  <unicode hex="23CE"/>
  <outline>
    <contour>
      <point x="812.0" y="402.0" type="line"/>
      <point x="812.0" y="1390.0" type="line"/>
      <point x="278.0" y="896.0" type="line"/>
    </contour>
    <contour>
      <point x="690.0" y="864.0" type="line"/>
      <point x="2336.0" y="864.0" type="line"/>
      <point x="2336.0" y="928.0" type="line"/>
      <point x="690.0" y="928.0" type="line"/>
    </contour>
    <contour>
      <point x="2278.0" y="864.0" type="line"/>
      <point x="2342.0" y="864.0" type="line"/>
      <point x="2342.0" y="2048.0" type="line"/>
      <point x="2278.0" y="2048.0" type="line"/>
    </contour>
    <contour>
      <point x="1696.0" y="1984.0" type="line"/>
      <point x="2336.0" y="1984.0" type="line"/>
      <point x="2336.0" y="2048.0" type="line"/>
      <point x="1696.0" y="2048.0" type="line"/>
    </contour>
  </outline>
</glyph>
<glyph name="openbullet" format="2">
  <advance width="1584.0"/>
  <unicode hex="25E6"/>
  <guideline x="1104.0" y="816.0" angle="0.0"/>
  <outline>
    <contour>
      <point x="792.0" y="560.0" type="curve" smooth="yes"/>
      <point x="932.0" y="560.0"/>
      <point x="1047.0" y="675.0"/>
      <point x="1048.0" y="816.0" type="curve" smooth="yes"/>
      <point x="1049.0" y="957.0"/>
      <point x="932.0" y="1072.0"/>
      <point x="792.0" y="1072.0" type="curve" smooth="yes"/>
      <point x="650.0" y="1072.0"/>
      <point x="535.0" y="957.0"/>
      <point x="536.0" y="816.0" type="curve" smooth="yes"/>
      <point x="537.0" y="675.0"/>
      <point x="650.0" y="560.0"/>
    </contour>
    <contour>
      <point x="792.0" y="624.0" type="curve" smooth="yes"/>
      <point x="686.0" y="624.0"/>
      <point x="601.0" y="709.0"/>
      <point x="600.0" y="816.0" type="curve" smooth="yes"/>
      <point x="599.0" y="922.0"/>
      <point x="686.0" y="1008.0"/>
      <point x="792.0" y="1008.0" type="curve" smooth="yes"/>
      <point x="897.0" y="1008.0"/>
      <point x="985.0" y="921.0"/>
      <point x="984.0" y="816.0" type="curve" smooth="yes"/>
      <point x="983.0" y="710.0"/>
      <point x="897.0" y="624.0"/>
    </contour>
  </outline>
</glyph>
<glyph name="blackSunWithRays" format="2">
  <advance width="3008.0"/>
  <unicode hex="2600"/>
  <outline>
    <contour>
      <point x="1504.0" y="572.0" type="curve" smooth="yes"/>
      <point x="1753.0" y="572.0"/>
      <point x="1956.0" y="775.0"/>
      <point x="1956.0" y="1024.0" type="curve" smooth="yes"/>
      <point x="1956.0" y="1273.0"/>
      <point x="1753.0" y="1476.0"/>
      <point x="1504.0" y="1476.0" type="curve" smooth="yes"/>
      <point x="1255.0" y="1476.0"/>
      <point x="1052.0" y="1273.0"/>
      <point x="1052.0" y="1024.0" type="curve" smooth="yes"/>
      <point x="1052.0" y="775.0"/>
      <point x="1255.0" y="572.0"/>
    </contour>
    <contour>
      <point x="1472.0" y="1676.0" type="line"/>
      <point x="1536.0" y="1676.0" type="line"/>
      <point x="1536.0" y="2284.0" type="line"/>
      <point x="1472.0" y="2284.0" type="line"/>
    </contour>
    <contour>
      <point x="1988.0" y="1464.0" type="line"/>
      <point x="2416.0" y="1892.0" type="line"/>
      <point x="2372.0" y="1936.0" type="line"/>
      <point x="1944.0" y="1508.0" type="line"/>
    </contour>
    <contour>
      <point x="2156.0" y="992.0" type="line"/>
      <point x="2764.0" y="992.0" type="line"/>
      <point x="2764.0" y="1056.0" type="line"/>
      <point x="2156.0" y="1056.0" type="line"/>
    </contour>
    <contour>
      <point x="2372.0" y="112.0" type="line"/>
      <point x="2416.0" y="156.0" type="line"/>
      <point x="1988.0" y="584.0" type="line"/>
      <point x="1944.0" y="540.0" type="line"/>
    </contour>
    <contour>
      <point x="1472.0" y="-236.0" type="line"/>
      <point x="1536.0" y="-236.0" type="line"/>
      <point x="1536.0" y="372.0" type="line"/>
      <point x="1472.0" y="372.0" type="line"/>
    </contour>
    <contour>
      <point x="636.0" y="112.0" type="line"/>
      <point x="1064.0" y="540.0" type="line"/>
      <point x="1020.0" y="584.0" type="line"/>
      <point x="592.0" y="156.0" type="line"/>
    </contour>
    <contour>
      <point x="244.0" y="992.0" type="line"/>
      <point x="852.0" y="992.0" type="line"/>
      <point x="852.0" y="1056.0" type="line"/>
      <point x="244.0" y="1056.0" type="line"/>
    </contour>
    <contour>
      <point x="1020.0" y="1464.0" type="line"/>
      <point x="1064.0" y="1508.0" type="line"/>
      <point x="636.0" y="1936.0" type="line"/>
      <point x="592.0" y="1892.0" type="line"/>
    </contour>
  </outline>
</glyph>
<glyph name="whitestar" format="2">
  <advance width="2944.0"/>
  <unicode hex="2606"/>
  <outline>
    <contour>
      <point x="1472.0" y="526.0" type="line"/>
      <point x="2228.0" y="-20.0" type="line"/>
      <point x="1930.0" y="868.0" type="line"/>
      <point x="2688.0" y="1416.0" type="line"/>
      <point x="1760.0" y="1416.0" type="line"/>
      <point x="1472.0" y="2304.0" type="line"/>
      <point x="1184.0" y="1416.0" type="line"/>
      <point x="256.0" y="1416.0" type="line"/>
      <point x="1014.0" y="868.0" type="line"/>
      <point x="716.0" y="-20.0" type="line"/>
    </contour>
    <contour>
      <point x="1472.0" y="606.0" type="line"/>
      <point x="840.0" y="150.0" type="line"/>
      <point x="1090.0" y="892.0" type="line"/>
      <point x="454.0" y="1352.0" type="line"/>
      <point x="1232.0" y="1352.0" type="line"/>
      <point x="1472.0" y="2098.0" type="line"/>
      <point x="1714.0" y="1352.0" type="line"/>
      <point x="2490.0" y="1352.0" type="line"/>
      <point x="1854.0" y="892.0" type="line"/>
      <point x="2104.0" y="150.0" type="line"/>
    </contour>
  </outline>
</glyph>
<glyph name="leftLongArrow" format="2">
  <advance width="3776.0"/>
  <unicode hex="27F5"/>
  <guideline x="3424.0" y="732.0" angle="90.0"/>
  <outline>
    <contour>
      <point x="1174.0" y="0.0" type="line"/>
      <point x="1220.0" y="46.0" type="line"/>
      <point x="400.0" y="864.0" type="line"/>
      <point x="3424.0" y="864.0" type="line"/>
      <point x="3424.0" y="928.0" type="line"/>
      <point x="400.0" y="928.0" type="line"/>
      <point x="1220.0" y="1748.0" type="line"/>
      <point x="1174.0" y="1792.0" type="line"/>
      <point x="278.0" y="896.0" type="line"/>
    </contour>
  </outline>
</glyph>
<glyph name="rightLongArrow" format="2">
  <advance width="3776.0"/>
  <unicode hex="27F6"/>
  <outline>
    <contour>
      <point x="2602.0" y="0.0" type="line"/>
      <point x="3498.0" y="896.0" type="line"/>
      <point x="2602.0" y="1792.0" type="line"/>
      <point x="2556.0" y="1748.0" type="line"/>
      <point x="3376.0" y="928.0" type="line"/>
      <point x="352.0" y="928.0" type="line"/>
      <point x="352.0" y="864.0" type="line"/>
      <point x="3376.0" y="864.0" type="line"/>
      <point x="2556.0" y="46.0" type="line"/>
    </contour>
  </outline>
</glyph>
<glyph name="leftRightLongArrow" format="2">
  <advance width="4928.0"/>
  <unicode hex="27F7"/>
  <outline>
    <contour>
      <point x="1174.0" y="0.0" type="line"/>
      <point x="1220.0" y="46.0" type="line"/>
      <point x="400.0" y="864.0" type="line"/>
      <point x="4528.0" y="864.0" type="line"/>
      <point x="3708.0" y="46.0" type="line"/>
      <point x="3754.0" y="0.0" type="line"/>
      <point x="4650.0" y="896.0" type="line"/>
      <point x="3754.0" y="1792.0" type="line"/>
      <point x="3708.0" y="1748.0" type="line"/>
      <point x="4528.0" y="928.0" type="line"/>
      <point x="400.0" y="928.0" type="line"/>
      <point x="1220.0" y="1748.0" type="line"/>
      <point x="1174.0" y="1792.0" type="line"/>
      <point x="278.0" y="896.0" type="line"/>
    </contour>
  </outline>
</glyph>
<glyph name="upBlackArrow" format="2">
  <advance width="2432.0"/>
  <unicode hex="2B06"/>
  <guideline x="1942.0" y="1248.0" angle="0.0"/>
  <outline>
    <contour>
      <point x="256.0" y="1248.0" type="line"/>
      <point x="800.0" y="1248.0" type="line"/>
      <point x="800.0" y="0.0" type="line"/>
      <point x="1632.0" y="0.0" type="line"/>
      <point x="1632.0" y="1248.0" type="line"/>
      <point x="2176.0" y="1248.0" type="line"/>
      <point x="1216.0" y="2208.0" type="line"/>
    </contour>
  </outline>
</glyph>
<glyph name="G.1" format="2">
  <advance width="2080.0"/>
  <unicode hex="E002"/>
  <outline>
    <contour>
      <point x="1060.0" y="-28.0" type="curve" smooth="yes"/>
      <point x="1393.0" y="-28.0"/>
      <point x="1659.0" y="146.0"/>
      <point x="1780.0" y="474.0" type="curve"/>
      <point x="1788.0" y="474.0" type="line"/>
      <point x="1788.0" y="0.0" type="line"/>
      <point x="1852.0" y="0.0" type="line"/>
      <point x="1852.0" y="928.0" type="line"/>
      <point x="1080.0" y="928.0" type="line"/>
      <point x="1080.0" y="864.0" type="line"/>
      <point x="1816.0" y="864.0" type="line"/>
      <point x="1788.0" y="888.0" type="line"/>
      <point x="1796.0" y="352.0"/>
      <point x="1488.0" y="36.0"/>
      <point x="1060.0" y="36.0" type="curve" smooth="yes"/>
      <point x="576.0" y="36.0"/>
      <point x="268.0" y="440.0"/>
      <point x="268.0" y="1024.0" type="curve" smooth="yes"/>
      <point x="268.0" y="1616.0"/>
      <point x="582.0" y="2012.0"/>
      <point x="1052.0" y="2012.0" type="curve" smooth="yes"/>
      <point x="1474.0" y="2012.0"/>
      <point x="1724.0" y="1688.0"/>
      <point x="1772.0" y="1408.0" type="curve"/>
      <point x="1836.0" y="1408.0" type="line"/>
      <point x="1788.0" y="1700.0"/>
      <point x="1532.0" y="2076.0"/>
      <point x="1052.0" y="2076.0" type="curve" smooth="yes"/>
      <point x="544.0" y="2076.0"/>
      <point x="204.0" y="1654.0"/>
      <point x="204.0" y="1024.0" type="curve" smooth="yes"/>
      <point x="204.0" y="398.0"/>
      <point x="540.0" y="-28.0"/>
    </contour>
  </outline>
</glyph>
<glyph name="rrthook" format="2">
  <advance width="916.0"/>
  <unicode hex="E05D"/>
  <outline>
    <contour>
      <point x="556.0" y="-540.0" type="curve" smooth="yes"/>
      <point x="572.0" y="-540.0"/>
      <point x="592.0" y="-540.0"/>
      <point x="608.0" y="-540.0" type="curve"/>
      <point x="608.0" y="-476.0" type="line"/>
      <point x="592.0" y="-476.0"/>
      <point x="572.0" y="-476.0"/>
      <point x="556.0" y="-476.0" type="curve" smooth="yes"/>
      <point x="427.0" y="-476.0"/>
      <point x="336.0" y="-385.0"/>
      <point x="336.0" y="-256.0" type="curve" smooth="yes"/>
      <point x="336.0" y="0.0" type="line"/>
      <point x="272.0" y="0.0" type="line"/>
      <point x="272.0" y="-256.0" type="line" smooth="yes"/>
      <point x="272.0" y="-422.0"/>
      <point x="390.0" y="-540.0"/>
    </contour>
    <component base="r"/>
  </outline>
</glyph>
<glyph name="bracketleft.sups" format="2">
  <advance width="608.0"/>
  <unicode hex="E0A7"/>
  <outline>
    <contour>
      <point x="236.0" y="748.0" type="line"/>
      <point x="544.0" y="748.0" type="line"/>
      <point x="544.0" y="812.0" type="line"/>
      <point x="300.0" y="812.0" type="line"/>
      <point x="300.0" y="2388.0" type="line"/>
      <point x="544.0" y="2388.0" type="line"/>
      <point x="544.0" y="2452.0" type="line"/>
      <point x="236.0" y="2452.0" type="line"/>
    </contour>
  </outline>
</glyph>
<glyph name="macrongravecomb.cn" format="2">
  <unicode hex="E0F7"/>
  <outline>
    <contour>
      <point x="-562.0" y="2528.0" type="line"/>
      <point x="-486.0" y="2528.0" type="line"/>
      <point x="-722.0" y="2784.0" type="line"/>
      <point x="-814.0" y="2784.0" type="line"/>
    </contour>
    <component base="macron" xOffset="-940.0" yOffset="424.0"/>
  </outline>
</glyph>
<glyph name="commaaccent" format="2">
  <unicode hex="F6C3"/>
  <outline>
    <contour>
      <point x="214.0" y="-680.0" type="line"/>
      <point x="266.0" y="-680.0" type="line"/>
      <point x="416.0" y="-162.0" type="line"/>
      <point x="346.0" y="-162.0" type="line"/>
    </contour>
  </outline>
</glyph>
<glyph name="uni1F16A" format="2">
  <advance width="1712.0"/>
  <unicode hex="1F16A"/>
  <outline>
    <contour>
      <point x="446.0" y="1312.0" type="line"/>
      <point x="514.0" y="1312.0" type="line"/>
      <point x="822.0" y="2048.0" type="line"/>
      <point x="752.0" y="2048.0" type="line"/>
      <point x="480.0" y="1396.0" type="line"/>
      <point x="208.0" y="2048.0" type="line"/>
      <point x="138.0" y="2048.0" type="line"/>
    </contour>
    <contour>
      <point x="128.0" y="1312.0" type="line"/>
      <point x="192.0" y="1312.0" type="line"/>
      <point x="192.0" y="2048.0" type="line"/>
      <point x="128.0" y="2048.0" type="line"/>
    </contour>
    <contour>
      <point x="768.0" y="1312.0" type="line"/>
      <point x="832.0" y="1312.0" type="line"/>
      <point x="832.0" y="2048.0" type="line"/>
      <point x="768.0" y="2048.0" type="line"/>
    </contour>
    <contour>
      <point x="1306.0" y="1306.0" type="curve" smooth="yes"/>
      <point x="1480.0" y="1306.0"/>
      <point x="1580.0" y="1381.0"/>
      <point x="1600.0" y="1536.0" type="curve"/>
      <point x="1536.0" y="1536.0" type="line"/>
      <point x="1515.0" y="1418.0"/>
      <point x="1439.0" y="1370.0"/>
      <point x="1306.0" y="1370.0" type="curve" smooth="yes"/>
      <point x="1119.0" y="1370.0"/>
      <point x="1048.0" y="1472.0"/>
      <point x="1048.0" y="1680.0" type="curve" smooth="yes"/>
      <point x="1048.0" y="1900.0"/>
      <point x="1121.0" y="1990.0"/>
      <point x="1306.0" y="1990.0" type="curve" smooth="yes"/>
      <point x="1441.0" y="1990.0"/>
      <point x="1513.0" y="1942.0"/>
      <point x="1534.0" y="1824.0" type="curve"/>
      <point x="1598.0" y="1824.0" type="line"/>
      <point x="1578.0" y="1980.0"/>
      <point x="1477.0" y="2054.0"/>
      <point x="1306.0" y="2054.0" type="curve" smooth="yes"/>
      <point x="1085.0" y="2054.0"/>
      <point x="984.0" y="1926.0"/>
      <point x="984.0" y="1680.0" type="curve" smooth="yes"/>
      <point x="984.0" y="1426.0"/>
      <point x="1087.0" y="1306.0"/>
    </contour>
  </outline>
</glyph>
<glyph name="uni1F16B" format="2">
  <advance width="1644.0"/>
  <unicode hex="1F16B"/>
  <outline>
    <contour>
      <point x="446.0" y="1312.0" type="line"/>
      <point x="514.0" y="1312.0" type="line"/>
      <point x="822.0" y="2048.0" type="line"/>
      <point x="752.0" y="2048.0" type="line"/>
      <point x="480.0" y="1396.0" type="line"/>
      <point x="208.0" y="2048.0" type="line"/>
      <point x="138.0" y="2048.0" type="line"/>
    </contour>
    <contour>
      <point x="128.0" y="1312.0" type="line"/>
      <point x="192.0" y="1312.0" type="line"/>
      <point x="192.0" y="2048.0" type="line"/>
      <point x="128.0" y="2048.0" type="line"/>
    </contour>
    <contour>
      <point x="768.0" y="1312.0" type="line"/>
      <point x="832.0" y="1312.0" type="line"/>
      <point x="832.0" y="2048.0" type="line"/>
      <point x="768.0" y="2048.0" type="line"/>
    </contour>
    <contour>
      <point x="1000.0" y="1312.0" type="line"/>
      <point x="1064.0" y="1312.0" type="line"/>
      <point x="1064.0" y="2048.0" type="line"/>
      <point x="1000.0" y="2048.0" type="line"/>
    </contour>
    <contour>
      <point x="1032.0" y="1312.0" type="line"/>
      <point x="1232.0" y="1312.0" type="line" smooth="yes"/>
      <point x="1386.0" y="1312.0"/>
      <point x="1532.0" y="1439.0"/>
      <point x="1532.0" y="1620.0" type="curve" smooth="yes"/>
      <point x="1532.0" y="1748.0" type="line" smooth="yes"/>
      <point x="1532.0" y="1926.0"/>
      <point x="1386.0" y="2048.0"/>
      <point x="1232.0" y="2048.0" type="curve" smooth="yes"/>
      <point x="1032.0" y="2048.0" type="line"/>
      <point x="1032.0" y="1984.0" type="line"/>
      <point x="1232.0" y="1984.0" type="line" smooth="yes"/>
      <point x="1362.0" y="1984.0"/>
      <point x="1468.0" y="1879.0"/>
      <point x="1468.0" y="1748.0" type="curve" smooth="yes"/>
      <point x="1468.0" y="1620.0" type="line" smooth="yes"/>
      <point x="1468.0" y="1485.0"/>
      <point x="1361.0" y="1376.0"/>
      <point x="1232.0" y="1376.0" type="curve" smooth="yes"/>
      <point x="1032.0" y="1376.0" type="line"/>
    </contour>
  </outline>
</glyph>
<glyph name="Ghook.1" format="2">
  <advance width="2004.0"/>
  <outline>
    <contour>
      <point x="1828.0" y="1432.0" type="line"/>
      <point x="1828.0" y="1552.0" type="line" smooth="yes"/>
      <point x="1826.0" y="1702.0"/>
      <point x="1894.0" y="1766.0"/>
      <point x="2008.0" y="1764.0" type="curve" smooth="yes"/>
      <point x="2026.0" y="1766.0"/>
      <point x="2042.0" y="1764.0"/>
      <point x="2044.0" y="1760.0" type="curve"/>
      <point x="2044.0" y="1820.0" type="line"/>
      <point x="2040.0" y="1828.0"/>
      <point x="2000.0" y="1820.0"/>
      <point x="1972.0" y="1820.0" type="curve" smooth="yes"/>
      <point x="1794.0" y="1820.0"/>
      <point x="1814.0" y="1720.0"/>
      <point x="1784.0" y="1552.0" type="curve" smooth="yes"/>
      <point x="1764.0" y="1432.0" type="line"/>
    </contour>
    <component base="G.1"/>
  </outline>
</glyph>
<glyph name="commaaccentright.cn" format="2">
  <advance width="782.0"/>
  <outline>
    <contour>
      <point x="358.0" y="1626.0" type="line"/>
      <point x="410.0" y="1626.0" type="line"/>
      <point x="428.0" y="2144.0" type="line"/>
      <point x="358.0" y="2144.0" type="line"/>
    </contour>
  </outline>
</glyph>
<glyph name="cyrillictail.cn" format="2">
  <advance width="704.0"/>
  <outline>
    <contour>
      <point x="384.0" y="256.0" type="line"/>
      <point x="320.0" y="256.0" type="line"/>
      <point x="320.0" y="64.0" type="line" smooth="yes"/>
      <point x="320.0" y="-50.0"/>
      <point x="292.0" y="-156.0"/>
      <point x="248.0" y="-270.0" type="curve"/>
      <point x="308.0" y="-292.0" type="line"/>
      <point x="352.0" y="-174.0"/>
      <point x="384.0" y="-58.0"/>
      <point x="384.0" y="64.0" type="curve" smooth="yes"/>
    </contour>
  </outline>
</glyph>
<glyph name="dieresisacutecomb.cn" format="2">
  <outline>
    <contour>
      <point x="-554.0" y="2528.0" type="line"/>
      <point x="-478.0" y="2528.0" type="line"/>
      <point x="-226.0" y="2784.0" type="line"/>
      <point x="-318.0" y="2784.0" type="line"/>
    </contour>
    <component base="casedieresis.cn" xOffset="-1440.0" yOffset="-24.0"/>
  </outline>
</glyph>
<glyph name="macronacutecomb.cn" format="2">
  <outline>
    <contour>
      <point x="-554.0" y="2528.0" type="line"/>
      <point x="-478.0" y="2528.0" type="line"/>
      <point x="-226.0" y="2784.0" type="line"/>
      <point x="-318.0" y="2784.0" type="line"/>
    </contour>
    <component base="macron" xOffset="-924.0" yOffset="424.0"/>
  </outline>
</glyph>
